<mxfile host="65bd71144e">
    <diagram id="7AG5YQ5dgztum4_hsa0r" name="ページ1">
        <mxGraphModel dx="994" dy="558" grid="1" gridSize="5" guides="1" tooltips="1" connect="1" arrows="1" fold="1" page="1" pageScale="1" pageWidth="1200" pageHeight="1920" background="#FFFFFF" math="0" shadow="0">
            <root>
                <mxCell id="0"/>
                <mxCell id="1" parent="0"/>
                <mxCell id="15" value="" style="sketch=0;aspect=fixed;pointerEvents=1;shadow=0;dashed=0;html=1;strokeColor=none;labelPosition=center;verticalLabelPosition=bottom;verticalAlign=top;align=center;fillColor=#00188D;shape=mxgraph.mscae.enterprise.cluster_server" parent="1" vertex="1">
                    <mxGeometry x="509.2299999999999" y="720" width="80" height="100" as="geometry"/>
                </mxCell>
                <mxCell id="38" value="" style="group" parent="1" vertex="1" connectable="0">
                    <mxGeometry x="457.38" y="10" width="190" height="150" as="geometry"/>
                </mxCell>
                <mxCell id="36" value="&lt;b&gt;Cloudflare&lt;/b&gt;" style="text;html=1;align=center;verticalAlign=middle;resizable=0;points=[];autosize=1;strokeColor=none;fillColor=none;fontSize=22;" parent="38" vertex="1">
                    <mxGeometry x="30" width="130" height="40" as="geometry"/>
                </mxCell>
                <mxCell id="27" value="" style="rounded=1;whiteSpace=wrap;html=1;strokeColor=#d6b656;fontSize=22;fillColor=#fff2cc;opacity=60;" parent="1" vertex="1">
                    <mxGeometry x="140" y="320" width="820" height="370" as="geometry"/>
                </mxCell>
                <mxCell id="16" style="edgeStyle=none;html=1;entryX=0.5;entryY=0;entryDx=0;entryDy=0;endArrow=none;endFill=0;strokeWidth=5;" parent="1" source="4" target="10" edge="1">
                    <mxGeometry relative="1" as="geometry"/>
                </mxCell>
                <mxCell id="4" value="" style="shape=image;verticalLabelPosition=bottom;labelBackgroundColor=default;verticalAlign=top;aspect=fixed;imageAspect=0;image=data:image/png,iVBORw0KGgoAAAANSUhEUgAAAGUAAABUEAYAAADLyiWEAAAMTGlDQ1BJQ0MgUHJvZmlsZQAASImVVwdYU8kWnltSSQgQiICU0JsgIiWAlBBaAOlFEJWQBAglxoSgYkcXFVy7iGBFV0EU2wrIYkNddWVR7K5lsaCysi4W7MqbEECXfeV75/vm3v/+c+afc86dWwYARodAJstFtQDIk+bLY0MC2BOSU9ikLoAAbUCDR2OBUCHjRkdHAGiD57/bm+vQD9oVR5XWP/v/q2mLxAohAEg0xOkihTAP4h8BwJuFMnk+AEQZ5C2m58tUeC3EunIYIMTVKpypxs0qnK7Gl/p94mN5ED8CgEwTCOSZAGj2QJ5dIMyEOgyYLXCWiiRSiP0h9s3LmyqCeD7EttAHzslQ6XPSv9HJ/Jtm+pCmQJA5hNW59Bs5UKKQ5Qpm/p/l+N+Wl6scnMMGNlqWPDRWlTOs26OcqeEqTIP4nTQ9MgpiHQBQXCLq91dhVpYyNEHtj9oKFTxYM8CCeJwiN44/wMeKBIHhEBtBnCHNjYwY8CnKkASrfGD90HJJPj8eYn2Iq8WKoLgBnxPyqbGD817PkPO4A/xTgbw/BpX+F2VOAletj+lkifkD+phTYVZ8EsRUiAMLJImREGtCHKnIiQsf8EktzOJFDvrIlbGqXCwhloulIQFqfawsQx4cO+C/O08xmDt2IkvCjxzAl/Oz4kPVtcIeCQX98cNcsB6xlJswqCNWTIgYzEUkDgxS546TxdKEODWP68vyA2LVY3F7WW70gD8eIM4NUfHmEMcrCuIGxxbkw8Wp1seLZfnR8eo48YpsQVi0Oh58P4gAPBAI2EAJWzqYCrKBpK27oRteqXuCgQDIQSYQA8cBZnBEUn+PFB7jQCH4EyIxUAyNC+jvFYMCyH8exqo4yRCnPjqCjIE+lUoOeAxxHggHufBa2a8kHYogETyCjOQfEQlgE8IccmFT9f97fpD9ynAhEzHAKAdnZDMGPYlBxEBiKDGYaIcb4r64Nx4Bj/6wueAc3HMwj6/+hMeEdsIDwjVCB+HWFEmRfFiU40EH1A8eqE/6t/XBraGmGx6A+0B1qIyzcEPgiLvCebi4H5zZDbK8gbhVVWEP0/5bBt/coQE/ijMFpYyg+FNsh4/UtNd0G1JR1frb+qhjTR+qN2+oZ/j8vG+qL4Ln8OGe2BLsEHYWO4mdx5qxBsDGjmONWCt2VIWHVtyj/hU3OFtsfzw5UGf4mvl6Z1WVVDjXOnc5f1L35Ytn5KseRt5U2Uy5JDMrn82FXwwxmy8VOo1iuzi7uAGg+v6oX2+vYvq/Kwir9Su38HcAfI739fX99JULOw7AAQ/4SjjylbPlwE+LBgDnjgiV8gI1h6sOBPjmYMCnzwCYAAtgC/NxAe7AG/iDIBAGokA8SAaTYfRZcJ3LwXQwGywAxaAUrATrQAXYAraDarAXHAQNoBmcBD+DC+ASuAZuw9XTCZ6BHvAGfEQQhITQESZigJgiVogD4oJwEF8kCIlAYpFkJA3JRKSIEpmNLERKkdVIBbINqUEOIEeQk8h5pB25hdxHupCXyAcUQ2moLmqMWqOjUQ7KRcPReHQSmolOQwvRRehytBytQveg9ehJ9AJ6De1An6G9GMA0MBZmhjliHIyHRWEpWAYmx+ZiJVgZVoXVYU3wPl/BOrBu7D1OxJk4G3eEKzgUT8CF+DR8Lr4Mr8Cr8Xr8NH4Fv4/34F8IdIIRwYHgReATJhAyCdMJxYQywk7CYcIZ+Cx1Et4QiUQW0YboAZ/FZGI2cRZxGXETcR/xBLGd+JDYSyKRDEgOJB9SFElAyicVkzaQ9pCOky6TOknvyBpkU7ILOZicQpaSi8hl5N3kY+TL5CfkjxQtihXFixJFEVFmUlZQdlCaKBcpnZSPVG2qDdWHGk/Npi6gllPrqGeod6ivNDQ0zDU8NWI0JBrzNco19muc07iv8Z6mQ7On8WipNCVtOW0X7QTtFu0VnU63pvvTU+j59OX0Gvop+j36O02mppMmX1OkOU+zUrNe87LmcwaFYcXgMiYzChlljEOMi4xuLYqWtRZPS6A1V6tS64jWDa1ebab2GO0o7TztZdq7tc9rP9Uh6VjrBOmIdBbpbNc5pfOQiTEtmDymkLmQuYN5htmpS9S10eXrZuuW6u7VbdPt0dPRc9VL1JuhV6l3VK+DhbGsWXxWLmsF6yDrOuvDCOMR3BHiEUtH1I24POKt/kh9f32xfon+Pv1r+h8M2AZBBjkGqwwaDO4a4ob2hjGG0w03G54x7B6pO9J7pHBkyciDI38zQo3sjWKNZhltN2o16jU2MQ4xlhlvMD5l3G3CMvE3yTZZa3LMpMuUaeprKjFda3rc9A+2HpvLzmWXs0+ze8yMzELNlGbbzNrMPprbmCeYF5nvM79rQbXgWGRYrLVoseixNLUcbznbstbyNyuKFccqy2q91Vmrt9Y21knWi60brJ/a6NvwbQptam3u2NJt/Wyn2VbZXrUj2nHscuw22V2yR+3d7LPsK+0vOqAO7g4Sh00O7aMIozxHSUdVjbrhSHPkOhY41jred2I5RTgVOTU4PR9tOTpl9KrRZ0d/cXZzznXe4Xx7jM6YsDFFY5rGvHSxdxG6VLpcHUsfGzx23tjGsS9cHVzFrptdb7ox3ca7LXZrcfvs7uEud69z7/Kw9Ejz2Ohxg6PLieYs45zzJHgGeM7zbPZ87+Xule910Osvb0fvHO/d3k/H2YwTj9sx7qGPuY/AZ5tPhy/bN813q2+Hn5mfwK/K74G/hb/If6f/E64dN5u7h/s8wDlAHnA44C3PizeHdyIQCwwJLAlsC9IJSgiqCLoXbB6cGVwb3BPiFjIr5EQoITQ8dFXoDb4xX8iv4feEeYTNCTsdTguPC68IfxBhHyGPaBqPjg8bv2b8nUirSGlkQxSI4ketibobbRM9LfqnGGJMdExlzOPYMbGzY8/GMeOmxO2OexMfEL8i/naCbYIyoSWRkZiaWJP4NikwaXVSx4TRE+ZMuJBsmCxJbkwhpSSm7EzpnRg0cd3EzlS31OLU65NsJs2YdH6y4eTcyUenMKYIphxKI6Qlpe1O+ySIElQJetP56RvTe4Q84XrhM5G/aK2oS+wjXi1+kuGTsTrjaaZP5prMriy/rLKsbglPUiF5kR2avSX7bU5Uzq6cvtyk3H155Ly0vCNSHWmO9PRUk6kzprbLHGTFso5pXtPWTeuRh8t3KhDFJEVjvi780W9V2iq/U94v8C2oLHg3PXH6oRnaM6QzWmfaz1w680lhcOEPs/BZwlkts81mL5h9fw53zra5yNz0uS3zLOYtmtc5P2R+9QLqgpwFvxY5F60uer0waWHTIuNF8xc9/C7ku9pizWJ58Y3F3ou3LMGXSJa0LR27dMPSLyWikl9KnUvLSj8tEy775fsx35d/37c8Y3nbCvcVm1cSV0pXXl/lt6p6tfbqwtUP14xfU7+WvbZk7et1U9adL3Mt27Keul65vqM8orxxg+WGlRs+VWRVXKsMqNy30Wjj0o1vN4k2Xd7sv7lui/GW0i0ftkq23twWsq2+yrqqbDtxe8H2xzsSd5z9gfNDzU7DnaU7P++S7uqojq0+XeNRU7PbaPeKWrRWWdu1J3XPpb2BexvrHOu27WPtK90P9iv3/3Eg7cD1g+EHWw5xDtX9aPXjxsPMwyX1SP3M+p6GrIaOxuTG9iNhR1qavJsO/+T0065ms+bKo3pHVxyjHlt0rO944fHeE7IT3SczTz5smdJy+9SEU1dPx5xuOxN+5tzPwT+fOss9e/ycz7nm817nj/zC+aXhgvuF+la31sO/uv16uM29rf6ix8XGS56XmtrHtR+77Hf55JXAKz9f5V+9cC3yWvv1hOs3b6Te6Lgpuvn0Vu6tF78V/Pbx9vw7hDsld7Xult0zulf1u93v+zrcO47eD7zf+iDuwe2HwofPHikefepc9Jj+uOyJ6ZOapy5Pm7uCuy79MfGPzmeyZx+7i//U/nPjc9vnP/7l/1drz4SezhfyF30vl70yeLXrtevrlt7o3ntv8t58fFvyzuBd9XvO+7Mfkj48+Tj9E+lT+We7z01fwr/c6cvr65MJ5IL+XwEMqLY2GQC83AUAPRkAJtw3Uieq94f9hqj3tP0I/Ces3kP2mzsAdfCfPqYb/t3cAGD/DgCsoT4jFYBoOgDxngAdO3aoDe7l+vedKiPCvcHWqM/peeng35h6T/pN3MPPQKXqCoaf/wVb0ILvhLzdpAAAADhlWElmTU0AKgAAAAgAAYdpAAQAAAABAAAAGgAAAAAAAqACAAQAAAABAAAAZaADAAQAAAABAAAAVAAAAAAq9I++AAA7y0lEQVR4Ae2dCbxkRXm3376zsMNFAVHRvigKLuiACrh2o0Rxh7gEJdrXLaISGaNGTPTr6xIFMTogKorSN4hbRB03RCP21aASg3oR1NGg3SggKMKILMM27/d/qs/b1XP69txZEXHO8/t1napTp6pOde31VlXF09Wcsi3XlhjYEgMjY6DSyyjuI23M96BrYDaZMKsn+nqfBjOfAtmbTlh6q2tWmQY9n4Ss77s3YWCVhJnNJLI6ZZD9LezLZMu1JQY2WQws3GiXioxxcxfMFndBrk70EvjqLpjdPAVmt9VBGaML1s8wY5NgtmAKzBZOgNQ6WP9aXQezW2dA9ifAbGwCBjKUbbm2xMCmi4H1zyjdogYpMkLUDNdOg9lVCbPfToDZr2fA7DfTYPan/wBlnAlQAt8PzLaqg9n4FJjtMgFmd5sEs3tNgdn2CbPtpkD2u6D3E7bl2hIDmycGvJVwbyayGm2yeB76Qv1DB9y/1gH3fxgH9yXngfsuB4H71rPgvqgDUvcB94XfAaldkPnzwX3xE0HvPRfcdxoD9/seAe6PvALcXzgN7u9OuH+jBu7/1wH361vgw1fHYcOvmoOvboPUJsi5wjy53pF+U1+j/I3/bVP7t8W9NWLAvJFwryay2nYYumY74L7UwP3ek+C+4CxwHzOIPs9mUFOVJf8+BO5b7QHuexi4HzoL7v98GLh/vAXu1yWGPmekwWoH91ur4H5bFWRANutIXcfrtha4r+qAwtEA92ub4P6nKrjf0AH3W2rg638V/9+tDVB4ayBnCG1H6pZro2JgoTrCvc5wVFjTa3a2w/jkGTA76clgdlnC7MbHgPocTwHZfmJCDxJm/50IZzZe3cXAbktIXQxmlybMrjwJ1ESbALP9u5D7MtFUnC8gMXiwoAvZ9q11MOt0QWrC7JIZMPv9BKjpeQGY/fFgMFu1BMxuWQ5mqxPqU10C6ou9BswWHQ5mOxwOZrtOgNlunwezPSbBbM8JMJuYBLO7dEHfmbAt16aOgX42iyZW1CzFgw81wX33Ccg1xNjfg/Q3gdS3g9QngNR7gdR0bXq1ci1kd5dMgPuyFqgJVgWV5G3w9b5uaID719vgflwN3J83A+6PnQX3Bx0E7ve4GNzHdwE1IY8E90pC4TwJpN4CMv8OqAbeEaTfBvT8x6Aa8ypw3+7B4L7rPuC+1xS4H7AU3J/aBffXzoL7R9rgfnELfPS1paYZHTdzPLEwW92A0Ln/ogruD1gFOUHaS0D6w0HqdiB1H8j2Ks8HJYQVIPOVkJ+PykBjDdB7F4ASzL1Bahrdyu8v+AOor1IH9/9NqCnTgvwdcbe6Crlv0TdvrRb5e99TAzXhloL7/brgftejQX2qy0Dh+Bzk8Iz6ns1mfqAJxdP+4L79buB+zweDMtIycH/lNCjDd0AFRw186LqtDe7eTuhmyzUYAxYRQ3IhwUQJfFwD5kgI4ybmME9tISWkXUHPPwzqpO8NKmH/APpDfwXq7Kv9tIuy6c7Hgvu2u4D6HAeC7N8TlEGuBiWIWVCnvgu55LysBmqTJ/Rp7d4fHd8TfYzodN9YBfdvtsH9pQYqEI4Fhet80Hc8HfQdz4U5vndda8p/MKH3z4EBd9IwnfTHg9RDQOrVMGBvXf0Je/uaUHw9G1QjTYO6npPg/vSloPirgfuVLch9mtuaoL5SwrdcRQxUvGhyxQTfxXUwe8ElYHZeF9K/MPdPqlH0KNUwZjsvA7NHnAtmtWvAbN8u6HnCbOsJ0HzIJKhL0wWzP8yA2e8SZr/8Fmg4eQmYPf+9YLbfJKiNPwEaHp4EG7puMDA7dwLMTnsNSD8O1kuXen7r5aDh6lRCy7+3gvpe34UhZzfc4EkGZt9J5Ah5qoHZKYnsfnQ6olPWGy3JnZxsc827lGHU9zkE1Hd5FchKahFoeP16MHvguWD2rHeC2REzoL7RNAz07dZ0/a9PVy4yzmqDaoJJWIeSbW8T6sM8G9xbTXD/YxPcowS/pQoaRWqDSrCi5IrRmRitubkJuYlwXQs0WlSD/L7XEh6jUx5X0ce6qAFqu0+Caoo6qKZ4CqjE/TBIfROoj7AXjP7eymUw8Dwl4AF9SjrD+p33APd7XQEDzx9oQvqiKbvtgyEPg1fGIduv3B2y3tJog/Sh3teEvuM+MGAvwlU0fStHgr676GMu+DW477AtuD9uAtzPTCjeOxCRO6AWBeyAyZ361uLrbm2C+4ktGIjoj5oY0EfEF+qC34H7Py2BcE19gVavKZdNNtFdx8Fva4P3r6sd3D9TA/fH1EEJYmcYDv/YFTBsnj5LsXLPi0BNsiPAfccDYMB+Gh+XPrUh5c/jQfrngfvedXB/Vxvc/2UKBt6PePy1CRU0R4P7Z1vgfvg4qAn6EsjvVe4BWR/hrbwF5M7ZoEGG80DzUS+EYftj7wZlrFIGXLgnyJ1dIIc7Cp4ooPpN3HZvPin9Kx3PV9EEzgZ/2XdKEr3rBgf3f52EHLGVL0DWxx8T6vb3B/eZFhSOSYkaI5tsnrufO7i/bhLc734+qG9zECjcW4PU/UFqjMZFZ7zoW0Xf5wWz4P6hKri/YBzU1j8f9P7LQOofQWq65N8zwP3hS8H9izVQW78B7u9sQbbfEzFQQn02uO92Mrj/pgPu3SZoIncSVOI/DQbeX2JC+oeB3PkWaPBhBbif0AH3t9VAE7UToD7g0TDgzhkmpH8rZPfiu7ZZDapploD759owx//bcPB+hmk63Gkuiy+5vgmaqBuHHJGVb0DWRwSGuuOvwP2nTQjXBmass9EmvftYE9z3XwYK34Mg/9Fjb4DR4X7cOChDtME9Ssyr2uB+VB1Uoq+CAXfub0L6u0E2f94kuK+ogvevVQ7ub61Bth/xV/kHUEY5G9wvqUL/dY+JydOqoMGPh8OAO5Hxi/As/CC4P2QK3L9aA0kqVEE1VgPcX2ygAmAvGHAvBUz6n4Iy4I8gP7/LOLi/YRbcL094vqoOd7pLUdW7oi/xpgnIEVP5IWR9/MGhbncmuH+3CeGaSpxE1q/vXb/vUfRFoml4agfcJ2ZA4doGpD4SpD4d9Ae/FnK4d14J+oNXgvuFCfV5ElJbIJGYJqgv827I79u9YUBfJKgnLgX3n3dABUQHvH/dVIVcske8hVp5BCijLAdllDb0X+/fxLDu8Q5qCr4LBsLzDRP67mJYfuGBoJqgC5pXakLfOf9tE9xbHXB/xLEw4F7xfWn6eVrm20J+vt0h4H7EEtDoWSK7f2e7s/ig6Ewvc8gRYsthQB8RWKhbfQDcT21DuJYTXjZZx7vopBd9nMggzSWgTvkqUILYGxSuD4D0dwUl8B9CDu+Ss8H9v9qgeZYmKCO3QWoD3L9chTyxZyeD3Nkd1LR6GmR3nzkFynAd8HxRnsqduGK4/a1tyO9HRulN0SujXARqciXi7WH12ja4v6MFapJdDPr+Z4DcfwNInQHFxzbg/tzl4H5NFeRuEc4b26AWQQ3UhF0CGszZDeTOcSB33grD4V/0W9C80wS4X5aQ+8UV8eydhKcGWTOe/uWoVg7q8gYMR0j/jy1llBg9efESyK5tbB8lZJ5Oa4HmWfaBnEEqO4LCmSZCcnh3eDxofqQL7r9sQ864NzVA+g64zzZAnd99ILszNgXSfwjk73Hg/oRpcP9xFXJGS8lA7pUTwrwZxU3kjFJueunRGlfUgDGq+EYD923eDTn85f9r271ATc0aKNwJqR1wvznh/oeE+382QaNwR8Ec7hYZcuwEUEa6EtyfvBTcf1sFH74iwww/uUObmLcS/UBeUAP3PQ0GIiiGIUsZJf6Q6EReXoO+c/PflCOu6BSe2gQ1Mb4IA+FI8w1KuK+HbH73W0Gjdg3QH18FNYUSnq92Gq/p1yxPWQ5y7xrI7sV3hbrXCnD/fhuyc/Pd3dQCNb0aMOx+ZSdQRrkK1PRKzOeqEngTNAyfcJ+sg2q+L8KAP1UTWX+/48C93YFhf2iA3trSIEQb3H/YBve/nQbF0xtA6i4gdx8C8veeoAw7BRq1WwKqIdvg/eu2Nvhf3JWlh4sEFJ2zw6chR7AthGH92K6gJsAKyDPm/ZgoEn65pI3n5Yg7qwGadzgfsn+V94H0jwP9MTeC+iqngErAGigB1Qqp2ZqDp1/UIkNGEzP6Itu/HbI/kTFC3WkFSNYrIXfiiu+Kplao4W9h76YOuL89MexP5T/B/W6PAY16VUEvF+H1cLdQI+P31dpqoQzWBPfHz0D2Z8GBIP2bQeonwP1ZM+D+6yrIv7jCv/i+Il38sgPuL+qC3Pk+ZH96M8nSF6OM250Bsj8Dmo9p9ebDwps0Rtbo6+7wN5VYV9Fr02omegrM3pcwW1qBXrKZ8zf9AXrytoT9zWFg9pWdQNKw02BmUwmJuyas79+MC7MfT4LZ3z4PzH61D+i9JAIi9WMJq7RAM8YvA7O/ewKYHfZQMLuhDrIfV+FfrKC8pg5m73o/SOr4KpDleyTMHpUwOzNhDz4MzF55DJjt2AVJAU+CZvITen8moZve1Wu6acY/YfalE8Hsc0tAdh6RsMq2IGnhr4KiKRXJWrg2Cfo/JkH2Y8FcxGOhxvOxLphduB+YnfCPoHj6GkjK+vsgd0rXq5eB2cOvAT2cTvTTQXzX1l2QVPQUmB13MJhdkSg5ijYNskiq+WFg9vIzQN+XEphWwk7AHO/dUY2ixA1ZqMja322DaorjYKDkSB8yoD/dhEr4c0Cd4S5o4q8B4ZrUKCGbqW7xmJC8ogpq2y6D7O7Yk0D6JCIjNYZ/C/8rq0HDt/tBfq8Xz3Pow51y+N9pQvbvDlLTuKnU94O+65WgCcUHwYC7hUTCSP/K/pT1MR8T/t7PxID7ZftlfRKFkf2YTymeV04BhfcLMOBeyljSHwtSU4Ew8Lzs/gj9WB0UL8tgjvej5XGhCdmbAffqDKjFkRhIF38htxZVewxrRifvxhpoNKMOAxGSSl7pdwSpRRu4PGN8UBfcf1aFHBvhfpgcMwXZ/co3QfoHQDbvyaJJH/MY5T/yBSYG7Jefr6v+lSbkTiES0m9SrOv789nbyoTcj0GIVONJn0ryTRD+Uf4X8yyItCah1iNMbIB/9zQx8N6rTEhfpANcXcPdYrAilhPsexRoMKQFkQqkRl85CtSBR3eEW4u2br/NGG3TInQfbYL7Xa4ClRDvAnXmSvMU6f+xHIGV40ETmDMw8KmlNvy7mpDf620uIfd3AKnHQn5e9med9amNNIc7B5hQCfwtmOP5qIS3oebleZ+QHGCB5h63g/9phZv8+VuQGhl3Q79nxHtjbZD7HwepDwVJBuwP7i+fAfffN0CDLo3eMo9+ehxIMneEW7VeQB/STaTP5iekcv9YBwkHvwbM2oeBLKSqVWohpaq73rXIQI34hN13HMy+9nkwu28dJPw6CVoRWAezI08Es3NmQe+XroVHgdrsN4IeLk4ooAmz+yTMjk5Yb9hafYhvgtlN10LJ0Tm0C68D+fMBkIVvJYxyVOhBYo43C6PotBTSvv5O0Gv7gtQrYOD16OM9xcAW3AB6nhKY1JAeHnhljdv4/lgyGStLUwaQzVQzqo/yHpD+Dwl1MhJm70hYr4ZTdNZB0tgTICnqHUDm7wK9f3Mid84+aGD+ZZDx9qC+2SEg+3+fsN6EpfRp+YXZXZeB2XuPAUktd0HSzl2QfxNg1u/T6vbPefUzSj9g0VmcKTqnqUlg9skpMHv1H0G7rSwDBf3RiSw2Hl+zl4HZxQl7/RSYvbkG6rzWQRGcendmF9TB7JALQLuvJMze+l5QOp0AJfhp0B9SB73fBbPI6LF0NzL4e14EyoDTIHula/FnwewfvwTKsE2Q+P00aDnANCihdaH08hzaiMfYryyWEXx8TzD7yAwMvHiNge38E1A6uifk7/cJGLA/4jb8jc53JLCxGci74rx5ZzBbMQ6Kx91Bju6WsO2eD2ZvvBvo/0hoGcQEyF692LdNt1wxaHHLBChfT4LZf14AZu9fAjZ8pRWxZo85F8ymvwr9fD1s/89tEjXKKDWqvZvaoPHxpZCr0l74pX8vSE2X1FJbdodVoBnwJoSrGs6t9jZtCPdjgvGEKmR7ffF8p5ej9zq9ibJQ+ysYOz0RknOroM0vzoAcrpggqzwH3HujWu5JkqMlh4sr5hMYfF1dG/Yv/B1Si/DFcHiIBr2lAzkcEU+9CiGLsHQaoKZIuyeVO+R+6bvLz/vxUIQ7Bmtic4uXz4LC8V3I4Rn7KEjaeBwkjDkDRWRI6btb7a0UDX/DPOZ1Ynj+oja418ch+9NbHyP9z0GyZq8D93/vgPtNNfA73NXvo5QzSkRwzARHyL/XAa0RXw45AqwGA/oiwyzYDrL5fjMgkYk2hKt5/iNm5CPjZBvrdndtC9zfPAvZX7seNEp2GkhE4wHgfnILNMHWAfnRTijnJDwSvJ5s0BUJdJQISz+jrNhNaD6kBhvk1Tq99M0maBnANOT4iYnPxZ8BPT8UtPa+Cuvk9BqW4v/7TAeUAXeDAf8KyYqxfwYVWKtAMmnabOr/ZL9/xf/QN/jz3Iz1SrbhX2Y3mN+IJnI0TQ+aALPGFKhNeV/Q+6cmdFNcxTzBbU8AubMfmP2oDmb/eiKoCTcF6rNMgaryaZC702BDVb1M1npdbmD21SnIViu/BzWxXwxqyt0IuWmRRjWxHk2LidR4MYumaHZq/e66a/b9Rr4cEy7ran+kQ2t/cJCB2YGzkO16muKXvuizXHkQmH1hGrK9dY2PxXWw5Bv+HfkLGHAnCa/qf94btFHijmB2VheUHrq9HUb7TcmBV/8st+WapKyPEjaq2sjPV1dBM8HjkEuKofH1g03oeUp4Un8A2f7bmhCuqorvgA9f85Qs0VT6QhWy+5VFoNGzkojKq8dBM8ZtGPZuU5nMJ+vVr1EKocj5ZL02OFxVh/4Vsly7fQNyfNm/g/QPB8m2pW118grTcCCahqEfpYZQ65eqIAmEpZD9i+UQC04A9wNXgGTFGiBXW4nUoL1tlCe3g/nIGqWfa4sSLvb2DfOdu6Ca4ZmgGdhp0NNlCascANK3Exad7d5CI5kXRdtJN4FKkmkwi05pv0QpBhP67+vVdMVgQ6G9YQLM/mdnKAylLLoG1OnfGTRhvA+oJjkGtHZ8ArL9O+1dqWZ8zAxof7C0pHHgq19rYHZ+wn51BJh9ewayvdXTkPVDd8X/FoOAD5kEsydNQ7a9+mrQYMlZoLGfU8Ds612QvcmExV7T+c3b+a5cg5T1kaNHZdqYQIxOeC/4KjFi5VwyyCVI//nvTajPsDtIZmsZ5K1R+/7FvMs8NcolDcjbC4U/Cx4G2f8nLIO8krDvT/RN+gab5uYOU6MUn3NzB6QpvveNS0HzG0sgx1PE39Yng+bD6jAQJ6UaauDJGreRnkLm7VNVkPDkM2DAv5RBlR7eBNotpg5ZqjkGDdZw/HbUzF+j9GJs5G/0KZ7TBbNXzYCsx/h5+c0Y99/VwG79CajCWQpmr78SNNrcBb1c1BwxTRDOxa74t06BZMUSZv83AbJVFGW3/QDiLbPH/QgkS1UHmUdJG32SbPXOeVfEZwyrP+mhoM3OvwHDn7zqaDC7aArMrpkG2StaGv34K78aNX5RIyyYBrOHToLZ3vvDwEupyafptyVg9oujQNN1M6CWRhfUMljH4fIBlzfJ7UZnlBCiSwvgFKSjayDZwrNhIIxF5748Ybf6rpDt/WgFmL19TzD7eReU7id6xzr0+jqK0GnQvEoXzL75FsjuWCln7fgUMDtgBjQ/0u0J+UXVHu4OuHCnvF00BUp4k6AtZxOar90e8iePjUPWX3oeaP5lCrK51yHr+3d1Awt/4jiPe9VB/8Ms5AxQ+T4oI+wHmse6CMy+24W+qxaDTNnk9rnbZBklIiRtGKmwv3tvkFRq2mxBEXI0KMGfBvN/3Nf3B/WBXgSKuC7ovaIkixIqJrju3QRN2J8B2f1KFdQW3xEkJDwFel60oaNkzW/cye+iJig+c/sZMKufDYq/p4H6dl+GHBdXXgxmP+1CNo//PZsUdzOpLdCP53i+zTSoj7gTaC/li0Hp4jOgdJJWaup4kBvA7Ps7Q7w9UGBmo9vnLtqQo9T5+ijlZmJ5NORrNdDxDWfBQJt0lHBj+mzZ+x5ovuMYcH9jHbQCrw0DvhZt5ZUNcH9vDfTeGGT/jqxDXnlX3kFywMVNenuH6aMUo0f9/zP0Rfx9vgmaAFwI6iucDzn+Fl8P2qVnHDY+in7WBPeHdSH7Y8eAZO9OAfeDjgP3S5uw8f5uqAsbX6OU8nPICoXxE2fA7Jjng0qqn4Ke/iKRTwaKF0L9RwO75UQwe8+1oGUvl0De4TGs7zgFElmaAdl/LMj574PZAxqgHRB7XSOrTIFKsBmwO/9V9BWiRraiaRR9wPvVQf/PS0F9x4dDjpabtwONSs3Cuov0ZBfWvEsyoDLaZwnof3ggSC3WG419HdQn2gfU5JuENd24PXVjm8qzWyfA7PoZGHb1n44Bs+fdAwaeX2egXngiPyiGJ8Pgph+C2QeeAzp+4kSQfwlF8AQoY9RBW8JOg+bPvgK5ExmyYDEIEU0w+2u5yoMXxSBG2kNDcbD7OGjCLyGDVLPnyLlmJZhdNwPZfH3vtpoCs/sfA5KZPAn0Py4E9VW2BjXBLgYt5JuA9fVlE9of1eQK835VPU+ddWkV3P+tA9pHqgPDL/2mAe7PNshV7tgOkPWWRscG9OmbpS/WVSz8V9B+We3e7iblrT8j/De0QFu7NmA4PJvb5A7T9JrnQ+Mgo0MNFM9HgpZVXAj5fzhwa9AS4sQ8jq7lcciExXDx3R4Mmhh+GEj9NqjJ/nBwf9MUrMXBzfxok9Uol3bB7E3XgllarlLRZtsTkHP2HtOgmiHJsWvP6OWgEuxPoBIlbRkq+6PE2dPGbKr6XwBqir0cJNX8BVDJk5A7CXVOZyBLAfebHnbHuPrLBgoZGg9p6Ns5eFHDTkyBPE87Ryoez4ccmJX7gEr6Ccjm63sXo5hFhWbbvA70t/8ApD4OtLR7F9CBTYeBzGd6olXr69/G2t/4jDKdGi/2u4Q+5KFg1vonUBOpAgPBLOxHX6G5E5g9dQL0ftrdQn/Q9TDwXhKpkP6uCfNrQX2YX4DZGduDMurBoLXckyAZs+ne+L0X4vwW/8yA0+k2miRl843UVyZA31NkXCtdvW2QZJg2sFN4J3qnHJesbXZtiOPfvQEK76NB3qbNvbP3N14EOkFsGrL5et9FOpjZVWgvglNg2JXVe4BOLlsKyjhdGLa3uU3UGty4KxZgXTMF2a2bPgdamHMsaJh4CrQJxBTkkuFe06DNENqgeZGdQelmO1DCeTioBkni+HI/+i5pZaL0xXXzS8Hss3cFubMM1EeZAk1wTcGA8GV9TJjGRRMWIhmxjiX6OlGxxSYOemPtV5ERo8S8uQ7qHL8Ihl/1+4PMC+nTG6dBwpvFe5t9gq0Ib2Tknbqg/+c3IPU0yOG+cQrMrp2AbH7TJGT9yLuSfzFcPH4lDLxVTMxVHgD6Px8DyiipKS3Ro0kYsL+Zbzc6o0RT4U8zkEO74CTQh70atAvHOKgJlDA7dAr0R0z2dhlJezXo9fd/Hsz+eQIkvXo+6EHsxvJZg5HXzZ8CSQ8/CvSHfhfMPjQNmlibAr1e/GHRmb9pBvqbr9jJH4Ic3gU/B723KqGbEdcFBhajSVaMNl16Lsg8hnvi9WIlZBJJW6SVfo8ErTDcE2RpNhG2N72a1oXI2SI+rkyX9IcnbPVXIHt7TQc0sXwBaEb/YFABNA7Z3si7SwwsZtpveR5oEPQhoLeK81uiQBy7AVTQnAyK/jqMdH3zPYhO7yh1vs587JP13gbkTt+CrUD61CbL5vc4DPKu6DHvUpYajs2u/24a8vu9mJA+NklIBgPPY8FYsZvKgiZoN/ezwf3cBszR8yvmE65qgfvxHVBnchbk/t+Axvc5zXsnqUeC1ApIXQgDanE249hdQZ3TF4LciU0rItyfNiHzp4HsXQRyJ10D7oc/m0mNXW0qB4PCE5tRxO41MbgSu+e/vSIUvuL7+vEwX/jiu4r94HoZRv79J2R/Y0/mrS4A7aF8LGjnzxrM8f9tZqONrlGi5OwPJxZ52n8P0qTdWgpDKZf/F6hEug5UIh0JZgfXQTVM0ZfoLSwya9Yhn0J87iTIoaLtHE0GXwQyjwUppxlYHFT1vfeDaradQUvGp8HsyQm1fLq903/vUgft49UFzeRPgPYBOwEke/Q2sLym/X8M1LZLZA8jYLG2P50zI3tfTpg9OKFjjBP993wPkL107orUcsTKaHNc/ieQy/+W0CYHCbO3JHTUWaJfI/ZFV2IdUnzvfIELe0Wb1ncBvVTssWD7JaxXMGkmfj9QNJwFiqZPwnyebIbno2qSMF/nGqX9XqESIV0qaV4NWR/mZfUuDwf3s6ogadEaqHhoJTx25zi/BjoFdxkMuJvE+KV/IQyYF+Ho+1fsdl85BnR46afA/cM10ObVTZC/hVRt+CuTdJ3fAdVMdViLP2V/y/r3mND7xY6NvRnQjXCv7P6m0ifZPIUrTgl4tYnbIZzFjpaV/UFSzctApzCvgA1fcVn8jRusbHyNUowWxeYr6X/iJ21P09fZ2IVg9pDvgCqaI0A1yKdAo2Rbg9mSDpjdfRL0vN4TunvYBGgHyy5oXckSUOd9BmTvdLDRVzFxtuAdoJn9bcHsdTeB5jtfBJIgqIJWQNZB7k70NnfoiVqYfdBBM//joOHoKVDJl0Qu5H0h7FY5G/R+Qiv4loFZ9ygYCGZqcmlG/CSQkOLpMHAm5XkGm+9KTVj1GQ6CvBPkL/4BZP4K0HecBFqRWOxS86CrQJtizIJK/FWwDsEsOqkx2hcLO3/6btBM/FNB/p0HUtOpq6rxtwbF01RPqHMdfNq0VqLmGKVGyT4qK8Z6lNMbkEucyuWQ9b3OvfvZTXCPtfhxtuP1bdDZjVXw4auoYeJBnBdygoNkk2qQ/at8DLLe0ijKgP63Jgb0KVpzX+acNsjhea44czI24451F7c0QSsDG+A+NQnD/lW2A20uMQ0qMRuQ12HEZuObTa31avAbO+D+niYonGnbo7yPWy/VKZyz4P7tJnj/WufwFf5F/FxWBfdHnwcD8ZO2f5HM3kvA/YkTkPcB63tcuin3dUuPN1g7cnOJyDjzZRRvJvzLbRj40CLh9dq82TyWoM4b4lELtQrziJDrW+D+wQboj0wHrmf/Fr8Zsj7+8JFqcVz23seB3K1BntmP81Rid5b5viM2y/i3KswRjlSkaonsQtCCshrM5+qmfx671zeXgQYVFoCOc1gKOdz3/ga4/6gFGx+OizugzSUOhexP/D8LXgf52O/rHQauoqnsocajWPBXNo/n66mO9QK0Eb9F0+tudVDVvBVk9xacDFn/uxlQVT0B2XzorhiuHDIvJqrCfKs6WO9oRRme9low2+sg0HzE20AP0h6/8dYcahotU1OjBhqudFDT7ETQgrS3gGScJkD2JEpZmZnDnZLRrdOgvurBUHqItpg/8VlQvHSLTRXmsLo5jW6bBo2FzICaPD8B+XhUQje9a9uLQU3DGQjTDVCL//fKCVC8roBhdxb8ELTUfCXkffT6Nov0EPN4n5sC/e9ToGHlyd7x7H37G3iz8Rml8Hi3Lig9vgZyaCqfhKzvXALzT0fkN0p3xbxESP8uqIPSWzED/9QZ0KDUO8Hs8V2QG6mpJTWu7dNxo6HrD6t52kVaCeUZIKHLJWD2HweAhDr3A63460J+fdRd7CazXQ3msBU7NxZ9hTls3C5Gq+ugvtRSkJfp1GPFw7shB2Gns0EbGM5ANl/fuxjM+/UkaL5tBagASienqc93f1BfdA8wu9ckZF9iNDMKll/WQaOTx4PW+E+BCu4J0HdM9Pqa2YX1vIsm1ih13qZXw8Gv7ICOrd4achWaljeoDd4Llvvf1MH9dw1Yz/pv0HpUraPWbhdNtJ+2QBuxdUFNileC1LSiTuojQeGLTcHLG/mlgOt5sWFcHKSTjom3fC7LDU1QAIumaLkpcEUT3F+4Ety3PwVyvOz+GMinAcul2/X6fQd0XPhRkMNV2Rey/omHgfvKKmx4EOOEr7e2QPGxNej/OB3U5EsTU9o/rph3i9HJ8DHej77Rpx3UhD0X3J8yDvmgpXivv19b32Ddbja6jxJSoH9qgE7TXQk5YiuPhazf/jjQBnhFAu4Hs9RZ75uXb6LvUtj/QwskzdoGWS4yUEyExuuREF4xDfpjXg0axj4HFL7jQaq28Usb+YU+NrN+vQn9kZeB7MWxELMLhPtrZiEvDAt/b62BNvhrQZi6L++A+5KloD94CpRRqpDtbfa7og1/gYOO+TgXFC9fhvy/RUH3/KXgvq59tFHhj5PCnrMS5E9MIH/ShDJKWkGmjJtKMPdvtSG7Fhkkjn2faoPC/xTQ6clLIB/gFG9GhVAuyOL5KHWjM0p0qmNLzTifPSK2X1In2awc8dMOSkDN3hFrUUKMCmjfvCixI+F1a+D+zJWgQ01bkBNmzPyXI+b9TdARfMdBDpfF+R7PMCHzJMoh9UCQmoQylZBuAY0KfQjy+weuAvdzqqDlBhpqYLAhrtgaNvRXtiAvF7i8CfH0dlCLguWzbdAKx5eCdnbcB/J3LW6C+7/MwsaH62cNUEFhkP3htBrOqxn7Prg/ahKGD1GNUdM49j2d+iF3FoyDRkF3Be14uQJ0VmcNcrj7GSYbrfVuozNK2fXv1UARfTMMREA0YQo1jkbrrxdp3ijKro3Wx3DmyhooQpeD++5bg/vpNdBWqS3I7kTGDJOvOmhY+CiYI7xXm5jDvPQ9Y/8K2d74saCEVQfVNDUIX1UiJ7I+7kaZx/PNpb6+CxqO/Qloou90yN/TW9jlfloDcijWN7xRE33SwX2Pt4MS+AWgGruYaNz6DMhN1b6PpVGsK6ugJv8s5PBG03rrk0DuTINGL6vQd23k/5Bt9O42OqNERMWM+q9roJnULuSA92uYIoGNd0F7zSaUcJqgQFUTvdCt5Ted/qDnsUCsuRyyf1udCTodOJ1noPH3JmQH4w8Lk8ua4P7/loNkvCYgu7fg0aA/stgzt3e0nJ6HTFQp45S/90GHgvsZCc0jNSF81+bUTZC+kcgPNvFdv4Yt3L26BSrZZyF/b+U+kPX7XQHu57chBypOTssmpbvosxXGf6qB+5FTkN2vvAekXwFqis7C8AldsddB1CgxL3fvkyG7V47/Xa4D9/clchjL6SA/WfNuozOKFxERbfGbW6CmRGIg4HFSVzoHJJuf0oYcqDjWOpvMfRdNr9hK9ZwOZHcjohZ/DtwPWwk66akBA26W/sib2+D+8Sq477Mcsru9syCVYbaCbB7+9dW04Eb2ngvZXu90BWXgWdCJZDUYCM9mvo3d4iP+vlIDHRSVhl9zOPvfkW7UtJ0EFUw1GAjkPBk7tuKNeI0m0D4rYNi/yqGgeD8MFD9FEy18jHDHRPVxDVDf5KUw7F7/O4pNK57cBfVpiwI93I0uROjL6sZnlHCxVCWGlO49LwUlmM+B2p6LIX/QYydBJWqrd8z0epeonTSO4b9uQe4cRwQtuC9k/55ch+E271DJWGSgH7XB/SUzkN0J91MTe8kc5kUCs8tA338qZHuVWXB/4KdAu8ckcp8torXct+qbb+BNTIDG62ksQeFftB/k8MX3bVsH7b4yC/FW7gNmk9Jd8b+EaRRoZzRA/hkM+7fV40FLxZeDat4OSG2B968ra+D+jJUw7I4l4cth890+Au7RR+07WEq/ffPiZtNllJLLV3VA55+PQw5wHAHXm7Bz3/aJ4B7HEZSc8f7w9DyjYn/sgPvrl0H2b/HhMKA/cbFw/2oThnzzUQnz6g64v24pKNxfhuzu2Mch6yOhDanvMjFsb8cbwP2ICcjnu/dDWGTcfhO1lBD79kbdlOxf6ZD7dkPhTAY6X2YluH+hBtnx/jEZ2WjNu+L/CuHSSx1Uk07DwPe/yIT0SVpZo1XXgfuHEnqhCPdNDcheXNIG957U+YB7Rbj735NyZH4+9mRw/7sZkIhRB7K7o+42W0YJDz/RAgX0XjAQ4LQRnkraJ4IOKFoO8ZbUyOGlP3jAxhq3cSDRl1qQ/YkIG3snZPNXLgX3JF2+hktr18Sw5BcdlNAMVEKeDVIL2aQk5H9a9i/C0VeTOLuevwakFn2dykdB8wevA/c3LAellxbksMUewtEUyU/mvosEG8Pnn26DBj8OgYFwxinFxWG2hywFyeC1IbsdfdNsMvddZKgvNUGnRr8dsn9jrwd15j8GGlTpgvtVbchu9vtWxShdhOfkNqjpeAhkd/vxnCaWZX4OKL1tAxoN64JEcTqQ/Rl1t9kzSqcGGg+fhoEPKRbqLH4ZqCQ5BbRJdwMGghsZZsBobbcX10Abp6Xt8rN/vX2ipP8ncL/XGeD+8w6szcU1n4XQ421tcL+6DUrQS0Di+9+A7G//D0tH9c1hHmL3xXzNgnuA5hHuB9n+fbrg/rGERtESvt5XnPb87KWQ3Y9wbnVX0P+xC7ifVIX19qb/wiVNUOd9FrJ/lW+AhnF/Bxo8eQi4n9IENbUSciYKykZqlOcCtEgXMQjz6Csgux/fM0rd9h3g3mqC/JnnsihhRqrrmVBH+Xf0OOhDngP5g8ZeDFn/OAP3a9swyrXR5jEBdVwbsrv2BtAf8xJQCXZC7zyO42ugNne7l/B9fa+WQ//6Zht0zsdKUA2zAwyE4zEmpC+EL0f9kUxvMsE59hQYeD+9oOHQVaAmURs0U57oByPfRPiK/zH6KJ910Pk206AMPgHypzi/5n5ngzq9Rd8vO7hudzGK97EmKON/AuR+2qdK6sHFuTnFis/96qATxzqwFj+K74l5t1VNcI9O/bZjMBxfvcMo9b9/ATRfNA7ur+rCHDuQloJQCX3vD9t0v2k+cVqyO5OgPWRnQLJSPwet4zgKhv3b+nyQkOPJoLNUW6C17zMgma6J3i4l3gW9P5Gw2KGyMgFmP7kEzE7eBrQ5wc9AMkSnQpb9uf8OoO2ODoS8Rh7JIJc7sebdZhK2zySYPXIG5N40yL1i3UwIS14+CWYnVkCHxe4BZr95O1j/WrAQtHLvWSDjXybyJhphs7QyMIwXngBmL34EmD2rBjpRawbMdqpD2B4O5/V1MPviBGjPgAtAQoWzYPbMBij+Etr+aRL03RO9TdNj7bt1E2aFkOzKadCeB68AyV6tAMleJSSsuC9IlutuoE3ZTwUdOjsNa1l3UvgTQrXxv180A1rqvycoGrtgfRk+OzFhYx8Chf/TYPaw3UGyfNeAFqrWQe+Vr8gom0stl9SvGQfl7ANAOT8dvz1HCZACuvHmYw8EuRMz7uFumspdf/erddC6jYRKwKJpEfFXPscjOt/ntEAl+HJQCXsqZP9jjbgVK/x6/1N+PqR/pQk9r0K2FzXD0XXIEgLXNiBCqXmrDvjQFX29r7XA/WUzoKbzKtD/9knI/g2FK+K3rN7PxPB7jzoW1MJqw0Bwosk1YJRuw7w0rH9DAzSxeBgofhdB7jv2w5m26s3hGL8K5jiXp+S+lcOxqfXlCZ1rq+B+6DLIw8ULHwr6gHQWmjpd7wPpmyD1BJD6bhjQF00qFtimJbZphlHPy39UzOOkcw70PJ1VKH92A+mfB1LfCFLjiLZikwr7Nci85O6+06C2fA204KqYh4l4LBcUsZn4Fzvg/rRJGHZ3XZcI93Z/VwJOC0iG3dnuHiCh0MNA4WyC+jgdiFDOr17dBPfvtMH9nQmFfwrUlNkDhv0vx1fo9zgX3L/SBmXcNgxk4MgQXrrCPNTicfQdT++ARiU/B5IwOBYGwhVLm4v/cfGjQcPFDdD/VwVJdLTB3dsJ3+wZRV71rtKHfdtBoi6vBP3RT4CBDyolyIjgITVVxevwXhL3lb3UVJMau4u8wsQ6vB8z8IXQXjkcO70UVKJNgHYLScTHKwHUIOvj7tcdcH9XA7TwbCEMhOfxJlSgFLJlZX+H9B8xofeT+P6AO8miJuZ+COpDTYIyTgu0YKwNPnwVCaX8IDrbl9VA6SldEtlZDu4HjIP7jpMwHI7XHwYDZ0NWHbzfVy57OI8+5ltiZer2h4LS1e9g2P+It0WHg3tIdlzXBM3rJeTp7Z5Ryh9ajGK8eRL0Ic8CVZWfgdEftmAMZO/rMGAvtY0H9EXCiAgpq5U/gOz/Pxh4r2jKjB0PqnHKS4p3NjFgf4Q/ey8FZYCEBidKTZ8Y3o1oiQnX2Ta4Hz0FKqmfCNm/WPK8aCuQeVpzLzVq3nJ4Yh5hKxPZnYiP7c8HHel3ELj/41LQtk41UAZvQYRSalHghQRGzLyHjRvaoGMa2pAlIc6ogvsJNXD/VQu8f/WHm0sFat/CPDchw/edKkg6/BDQ96Z9y4a/O75/0Y6QhT1DxOamKsjTduJ2rFFKHxri+SFu3d8cuvxHl/S9zrxmileC+4U1cP9uwv17HcjqeU2QPqEZ38NAJfQbQBnhaFBEFk2rhbuD+/23Bq03aUCeAPxeC+ReE6QW+vNq4P4/TXD/fg0kHt4CCRPWIOvLUsR94c2iAAnhve83QcOrS0FNiaUw+o+PBDCkljPKYSZU4KRL8XAuqG3/ItAo2KWgCb2l4P7uNrj/ogoavm2Ae7lpGd8RIiZeXFGj3twAvVcD934N0nTwyIi6W68rarivN0AZ5bmg7/swjI6vRc8A92YXVMO1e6dERzhTNmnr/fUKzaa0XCo5Qlz+/nUY+LDoU6T9sbL5LgvB/TNtGP7DRgX1xx2QLNEqyO5ZIYNWOROUYPYG9xcsB21n1IFRro42jwh/WwM0PP0RcH9RHZTwmjAQ/iJe+hOJRYkWQqBf64A2W1gJqnE+DAPfUSpY7FjQ8x1gDnuxfOBJJlSAPBWUcW6DbL9yJGi+48GgNewT4P6BJmhTjCZoArfRW5cUwou+sVcpnYxybmUT3F/RBWWQ54HU/4X8HeUCZKsXgAqyFqgAaPaEVRGYuVX6yLim2z/rFSVrdOa+VgX3uy+E/IFjxc6C/Q9NG7O577IXeG/XI30Jwvo3NvMnRUnWn5kuHqU9FGRvmysg+2NJajHr0/k5N2sXlQ5kdz3a1EVCHniyxm3MIMfxFP3wFwl6zytA+4tVYUCKOFyJhBITboV5DBqc0QZ11sdBNcHJkMPf969lQhkhjtdIw6WyFxmoVBD13yvCOZ9+/FJwf+4MKAPVQKJJDVBTqwlaCVuIzoTUd2zW4et5xf/cbYAWaHVAfaJHwcD3F8KQ/fB/0YSeF4NAd78KtKtMYiAQUcMVRn++jFJOYKWAfaoB7uPHwcCHp7XcKvFWgczTQgkl+P3B/R1VGNjQrvjQaANHxokmwjOXwoD7McpVSiB7HA3uM20oHF0HZWRGOctE9neHB4NWOCbW4nA53gqrN1QhFxhP7YJEVJZD9sf+AxR/TwKZvwykps01BuyVvr+f0MI8hA5DDfMR6n1XgoQYWQ+nVBeiOe9rgFoGVdBwdkJN6Rq4n9cB93YV3D/dAjW9p0GDEktB4Y4VqeF/OpVa5pFRkqiGCorjINfsz10G7pfXwPNVKpgU5D/TVQqItxL9Nmu0cT/aAH3YDAz/kWOnQzZffAi4v7wOWu9ShfyN0emLTuhsA7RdzmGQ3eltDi192gUhm8cw64VtyO6OuhuZUYo/dNG2INmuq0AZpSghR7lXNo/lDWXz2PcsVi6+YBYk5LgU8vekYCgVDKnp+PE5zItwl6Vzx/YC9aGeD2ryPA7W8n64U1K3WQEqIM8FyXBdBHm4dyicxfsL/hlUAPwtyN9/AakhCXC2CT1/Nsj9U8D9PzqgQYtEORazXlF0B7uiqVGUnNFWPLUKKiEPhfwHhDToqAi8z2Hg3mqA2qCdnth2+atjlOceF4HcL5p2vR0UFcH7QfY3SrIfNCC7Fp3cMJkvo1hR8u16MmgCswrxttSIj8IoRHvOqoGaMg0oHq6D8tM2aL+yhCZAp0AJcXvI39ePz7RdkYZZ9wLFw+dhDntFgu2/F/q0J7PeOwCkXgtSXwJyJ517sx7uFe5W7g5y57Uw8P7TTQzoIxwlNTbUu7oBAxFXiu94csfLKBGyaIoVNc2qBmiP4hZorftyyBGy6GiQfjuQuhPk53c9A9yfPwPu/92E8Cyrp9Ygv2fngv6Qq0Dmr4X8fP9Dwf0nTcjuhNRsLJQa1UepbAuaP7kOlFFqoBKuAZr4aoBGYxLaxKIOqoGWgoQ/zwOt3GuDJhIb4P3rhhqogKj1NrnoPyhuOlVw/3oVNDy8HDTqtxzyd6Z0ptQS6qIngWqQC0EZ6Vug52mT7Wwv7M+rrmMTbl536ib0fz0CNCjzfsjhecA4uH+tDUUkoESLZsBo8Faffge72g7uzYRHiRpNpfigH9VAxwF0IUdEPyKXmZB5UeXGcQ29U2e1VnsFaL5iKWhYtwPyt7hCarbvXrqRe8W8S+VVkP3d/wrQJgbFPEi4M1+N0hPhUka5CHJGifdDkuHtTZB/vwG1tUsL4Hb4BLjvdxQML6EN90KNTnQMpoR51Fg/c9DS5SZolG4K3O+5CvJ3D8VPxNOfS72LCYWv2FR8bH9wf/gMKIN0eqOG0QQvixxFPJRVKxvcYfSRUUKtpRH3nPMLfUxspXjR12z1Yhj4Ix9tQiVMUXJXvgL5+cLloDXaV4FGbWbB/cwqqARfCXJ3V9B76QxJuXdPkL6YKK38DtwfdB6oU1oDDfsm3GN4eChhaYSePyG2VI0lqrFP2iuXgUrsh0AOd6UB0hfbJo2dD+73WQ7un2iCRuu0ic9U2/3FM6D5oAYoXB3wfp9Qd72r1HeMCcdYt9PtgOKnBe7H1EHD7Wl3cpXgOoKWQ2ijqTX0vZs7A93CARIaDS2mD16/EvJWtf2MUU5PxeePUviP7hRXNE0+3gAlmCtAJW+xoi3WoVQWgxJY6YCj+EMrV4AmrIoN6vZcBVpwdCbovYtACWER5IQb74c6cRC4R1PubS0YsH8fE9K/FdT3ehOoCdQG979fAtl+6lvr3wr3y+rYY0DrbHYHNc3OBH1/sfKysgLUid0aNPE6Ae5frIH7FVXQ8Hqnt1l3fyLQ576i8xujhytboFHBDqhBkEQFtNZ+ObjvezaoQHgaKH4PAI1WvhU0WHMjaBBgV1CGOwakvhqkXguydyuoT/Vh0LqZCdAS8DpoHuUwcP/fFgzIbJU/o5PaKmXTkfpKPOlF/J3n9/Jp0BabB0M+9+eqCZCY9XdAYufXgNRiC1W7f8J68ymKj28nzL6eMPtRwnq7vet5cWBRb2Zf+tK17SxoC9LXgU5Jvhjk32KQ5Q8mbLsjQWLx54L2AN4LBhyLg4dSRh0wj9tiD+O04PJRMvxFQic0Jcw+lQjbQ+p9J0GnLKcMreUQCVlLbX6pxTID3W3QdWsXstR7bIF66QToPKUu6NiHCuQzLOPAqIXLQGfdNkFHDE6AzqmfBJ22MQ1rEc+3jbwio/zFq0UTLTrR0Qb1VsL/qwpacjwOamsfAaNLaCvmU8b2BdUg6ZRi2X8QrOW99H/IflGCpxbALnPYT20V2RuH4eeLHgIyT7I9Un8Gw/Z6f7/MiyPjFmwHqkl2gdH2d/w6aAHYSpA0cAPUR+rAhqeGWFAVE4Kx1j2WG2y4y2t/MyasQ0arL/279tfW+amts82/MIvRNIgJxgh+iIbETo5HToKaastgdMLqJ8joo/x3RSihx35UIbVbZJS+/dCHKEnoR6mxM2U8jy1ei5WAsa9YjMJVzoD5w73jatDez1MgsfIWaA/oNkTsDKilvsrAkw27LZo6kWFC1itktPpqpzd83xclcZ5o1K6stpg4yH3AGPTxzXTdaZteKZ0N/sQKvGJF5OAj7i+ug9mPE2bfOxwsHXd1np6nfdmkXrUUdBNX7Ip/nUH/WvBmUBPvXaCVni8AqV8EWSvC4d8BmT8K1CR7Cuj4hzHQysczQeYXQt95HV2W6Ad48TEgZ48HHVe+Aswe9V6QfhLyQWhb12HAvS23a40BLUL9K7nKGWQyLfLtt733qoPOVZmG/lmbdtk0mGkrfGH2gx+Blhq/BpTBumB2yaGgjHQ5KIHfB6T+CZQRfgBSzwHLa47jOO3enqX9JcX+TZC9CxO23f5gdu/HgdroK8HsAdeC2b5LwOyBe0M+Wm/3aZC/CWW4YslyZNS+GvFRjicFYcul+Iua6q82MoqEEeeDjHVBsTGi83rTFJj9MWH2py6Y/aEL6qwnlGHqoLX+k5Dt3Xg4aA36LGgNeRe0Fn0WdLbl58Fs+xnQATozoEOCu6DzZ6ZAgwPTkA9d3qEONnwVGWD1FOgPnwapk729DPovbMkg/aiY66bIKM2puR7+VZtNG6gqSZhNJdY5SlZ/E1SjPBbUlHosSE2X1BYowV4CUg8GbZ7x3yD1dJB6BqyztzmD98Znje3lhKX6c3I93NlidY0Y+P9rvcCqey1AfwAAAABJRU5ErkJggg==;" parent="1" vertex="1">
                    <mxGeometry x="256.37" y="210" width="72.14" height="60" as="geometry"/>
                </mxCell>
                <mxCell id="17" style="edgeStyle=none;html=1;entryX=0.5;entryY=0;entryDx=0;entryDy=0;endArrow=none;endFill=0;strokeWidth=5;" parent="1" source="7" target="12" edge="1">
                    <mxGeometry relative="1" as="geometry"/>
                </mxCell>
                <mxCell id="7" value="" style="shape=image;verticalLabelPosition=bottom;labelBackgroundColor=default;verticalAlign=top;aspect=fixed;imageAspect=0;image=data:image/png,iVBORw0KGgoAAAANSUhEUgAAAGUAAABUEAYAAADLyiWEAAAMTGlDQ1BJQ0MgUHJvZmlsZQAASImVVwdYU8kWnltSSQgQiICU0JsgIiWAlBBaAOlFEJWQBAglxoSgYkcXFVy7iGBFV0EU2wrIYkNddWVR7K5lsaCysi4W7MqbEECXfeV75/vm3v/+c+afc86dWwYARodAJstFtQDIk+bLY0MC2BOSU9ikLoAAbUCDR2OBUCHjRkdHAGiD57/bm+vQD9oVR5XWP/v/q2mLxAohAEg0xOkihTAP4h8BwJuFMnk+AEQZ5C2m58tUeC3EunIYIMTVKpypxs0qnK7Gl/p94mN5ED8CgEwTCOSZAGj2QJ5dIMyEOgyYLXCWiiRSiP0h9s3LmyqCeD7EttAHzslQ6XPSv9HJ/Jtm+pCmQJA5hNW59Bs5UKKQ5Qpm/p/l+N+Wl6scnMMGNlqWPDRWlTOs26OcqeEqTIP4nTQ9MgpiHQBQXCLq91dhVpYyNEHtj9oKFTxYM8CCeJwiN44/wMeKBIHhEBtBnCHNjYwY8CnKkASrfGD90HJJPj8eYn2Iq8WKoLgBnxPyqbGD817PkPO4A/xTgbw/BpX+F2VOAletj+lkifkD+phTYVZ8EsRUiAMLJImREGtCHKnIiQsf8EktzOJFDvrIlbGqXCwhloulIQFqfawsQx4cO+C/O08xmDt2IkvCjxzAl/Oz4kPVtcIeCQX98cNcsB6xlJswqCNWTIgYzEUkDgxS546TxdKEODWP68vyA2LVY3F7WW70gD8eIM4NUfHmEMcrCuIGxxbkw8Wp1seLZfnR8eo48YpsQVi0Oh58P4gAPBAI2EAJWzqYCrKBpK27oRteqXuCgQDIQSYQA8cBZnBEUn+PFB7jQCH4EyIxUAyNC+jvFYMCyH8exqo4yRCnPjqCjIE+lUoOeAxxHggHufBa2a8kHYogETyCjOQfEQlgE8IccmFT9f97fpD9ynAhEzHAKAdnZDMGPYlBxEBiKDGYaIcb4r64Nx4Bj/6wueAc3HMwj6/+hMeEdsIDwjVCB+HWFEmRfFiU40EH1A8eqE/6t/XBraGmGx6A+0B1qIyzcEPgiLvCebi4H5zZDbK8gbhVVWEP0/5bBt/coQE/ijMFpYyg+FNsh4/UtNd0G1JR1frb+qhjTR+qN2+oZ/j8vG+qL4Ln8OGe2BLsEHYWO4mdx5qxBsDGjmONWCt2VIWHVtyj/hU3OFtsfzw5UGf4mvl6Z1WVVDjXOnc5f1L35Ytn5KseRt5U2Uy5JDMrn82FXwwxmy8VOo1iuzi7uAGg+v6oX2+vYvq/Kwir9Su38HcAfI739fX99JULOw7AAQ/4SjjylbPlwE+LBgDnjgiV8gI1h6sOBPjmYMCnzwCYAAtgC/NxAe7AG/iDIBAGokA8SAaTYfRZcJ3LwXQwGywAxaAUrATrQAXYAraDarAXHAQNoBmcBD+DC+ASuAZuw9XTCZ6BHvAGfEQQhITQESZigJgiVogD4oJwEF8kCIlAYpFkJA3JRKSIEpmNLERKkdVIBbINqUEOIEeQk8h5pB25hdxHupCXyAcUQ2moLmqMWqOjUQ7KRcPReHQSmolOQwvRRehytBytQveg9ehJ9AJ6De1An6G9GMA0MBZmhjliHIyHRWEpWAYmx+ZiJVgZVoXVYU3wPl/BOrBu7D1OxJk4G3eEKzgUT8CF+DR8Lr4Mr8Cr8Xr8NH4Fv4/34F8IdIIRwYHgReATJhAyCdMJxYQywk7CYcIZ+Cx1Et4QiUQW0YboAZ/FZGI2cRZxGXETcR/xBLGd+JDYSyKRDEgOJB9SFElAyicVkzaQ9pCOky6TOknvyBpkU7ILOZicQpaSi8hl5N3kY+TL5CfkjxQtihXFixJFEVFmUlZQdlCaKBcpnZSPVG2qDdWHGk/Npi6gllPrqGeod6ivNDQ0zDU8NWI0JBrzNco19muc07iv8Z6mQ7On8WipNCVtOW0X7QTtFu0VnU63pvvTU+j59OX0Gvop+j36O02mppMmX1OkOU+zUrNe87LmcwaFYcXgMiYzChlljEOMi4xuLYqWtRZPS6A1V6tS64jWDa1ebab2GO0o7TztZdq7tc9rP9Uh6VjrBOmIdBbpbNc5pfOQiTEtmDymkLmQuYN5htmpS9S10eXrZuuW6u7VbdPt0dPRc9VL1JuhV6l3VK+DhbGsWXxWLmsF6yDrOuvDCOMR3BHiEUtH1I24POKt/kh9f32xfon+Pv1r+h8M2AZBBjkGqwwaDO4a4ob2hjGG0w03G54x7B6pO9J7pHBkyciDI38zQo3sjWKNZhltN2o16jU2MQ4xlhlvMD5l3G3CMvE3yTZZa3LMpMuUaeprKjFda3rc9A+2HpvLzmWXs0+ze8yMzELNlGbbzNrMPprbmCeYF5nvM79rQbXgWGRYrLVoseixNLUcbznbstbyNyuKFccqy2q91Vmrt9Y21knWi60brJ/a6NvwbQptam3u2NJt/Wyn2VbZXrUj2nHscuw22V2yR+3d7LPsK+0vOqAO7g4Sh00O7aMIozxHSUdVjbrhSHPkOhY41jred2I5RTgVOTU4PR9tOTpl9KrRZ0d/cXZzznXe4Xx7jM6YsDFFY5rGvHSxdxG6VLpcHUsfGzx23tjGsS9cHVzFrptdb7ox3ca7LXZrcfvs7uEud69z7/Kw9Ejz2Ohxg6PLieYs45zzJHgGeM7zbPZ87+Xule910Osvb0fvHO/d3k/H2YwTj9sx7qGPuY/AZ5tPhy/bN813q2+Hn5mfwK/K74G/hb/If6f/E64dN5u7h/s8wDlAHnA44C3PizeHdyIQCwwJLAlsC9IJSgiqCLoXbB6cGVwb3BPiFjIr5EQoITQ8dFXoDb4xX8iv4feEeYTNCTsdTguPC68IfxBhHyGPaBqPjg8bv2b8nUirSGlkQxSI4ketibobbRM9LfqnGGJMdExlzOPYMbGzY8/GMeOmxO2OexMfEL8i/naCbYIyoSWRkZiaWJP4NikwaXVSx4TRE+ZMuJBsmCxJbkwhpSSm7EzpnRg0cd3EzlS31OLU65NsJs2YdH6y4eTcyUenMKYIphxKI6Qlpe1O+ySIElQJetP56RvTe4Q84XrhM5G/aK2oS+wjXi1+kuGTsTrjaaZP5prMriy/rLKsbglPUiF5kR2avSX7bU5Uzq6cvtyk3H155Ly0vCNSHWmO9PRUk6kzprbLHGTFso5pXtPWTeuRh8t3KhDFJEVjvi780W9V2iq/U94v8C2oLHg3PXH6oRnaM6QzWmfaz1w680lhcOEPs/BZwlkts81mL5h9fw53zra5yNz0uS3zLOYtmtc5P2R+9QLqgpwFvxY5F60uer0waWHTIuNF8xc9/C7ku9pizWJ58Y3F3ou3LMGXSJa0LR27dMPSLyWikl9KnUvLSj8tEy775fsx35d/37c8Y3nbCvcVm1cSV0pXXl/lt6p6tfbqwtUP14xfU7+WvbZk7et1U9adL3Mt27Keul65vqM8orxxg+WGlRs+VWRVXKsMqNy30Wjj0o1vN4k2Xd7sv7lui/GW0i0ftkq23twWsq2+yrqqbDtxe8H2xzsSd5z9gfNDzU7DnaU7P++S7uqojq0+XeNRU7PbaPeKWrRWWdu1J3XPpb2BexvrHOu27WPtK90P9iv3/3Eg7cD1g+EHWw5xDtX9aPXjxsPMwyX1SP3M+p6GrIaOxuTG9iNhR1qavJsO/+T0065ms+bKo3pHVxyjHlt0rO944fHeE7IT3SczTz5smdJy+9SEU1dPx5xuOxN+5tzPwT+fOss9e/ycz7nm817nj/zC+aXhgvuF+la31sO/uv16uM29rf6ix8XGS56XmtrHtR+77Hf55JXAKz9f5V+9cC3yWvv1hOs3b6Te6Lgpuvn0Vu6tF78V/Pbx9vw7hDsld7Xult0zulf1u93v+zrcO47eD7zf+iDuwe2HwofPHikefepc9Jj+uOyJ6ZOapy5Pm7uCuy79MfGPzmeyZx+7i//U/nPjc9vnP/7l/1drz4SezhfyF30vl70yeLXrtevrlt7o3ntv8t58fFvyzuBd9XvO+7Mfkj48+Tj9E+lT+We7z01fwr/c6cvr65MJ5IL+XwEMqLY2GQC83AUAPRkAJtw3Uieq94f9hqj3tP0I/Ces3kP2mzsAdfCfPqYb/t3cAGD/DgCsoT4jFYBoOgDxngAdO3aoDe7l+vedKiPCvcHWqM/peeng35h6T/pN3MPPQKXqCoaf/wVb0ILvhLzdpAAAADhlWElmTU0AKgAAAAgAAYdpAAQAAAABAAAAGgAAAAAAAqACAAQAAAABAAAAZaADAAQAAAABAAAAVAAAAAAq9I++AAA7y0lEQVR4Ae2dCbxkRXm3376zsMNFAVHRvigKLuiACrh2o0Rxh7gEJdrXLaISGaNGTPTr6xIFMTogKorSN4hbRB03RCP21aASg3oR1NGg3SggKMKILMM27/d/qs/b1XP69txZEXHO8/t1napTp6pOde31VlXF09Wcsi3XlhjYEgMjY6DSyyjuI23M96BrYDaZMKsn+nqfBjOfAtmbTlh6q2tWmQY9n4Ss77s3YWCVhJnNJLI6ZZD9LezLZMu1JQY2WQws3GiXioxxcxfMFndBrk70EvjqLpjdPAVmt9VBGaML1s8wY5NgtmAKzBZOgNQ6WP9aXQezW2dA9ifAbGwCBjKUbbm2xMCmi4H1zyjdogYpMkLUDNdOg9lVCbPfToDZr2fA7DfTYPan/wBlnAlQAt8PzLaqg9n4FJjtMgFmd5sEs3tNgdn2CbPtpkD2u6D3E7bl2hIDmycGvJVwbyayGm2yeB76Qv1DB9y/1gH3fxgH9yXngfsuB4H71rPgvqgDUvcB94XfAaldkPnzwX3xE0HvPRfcdxoD9/seAe6PvALcXzgN7u9OuH+jBu7/1wH361vgw1fHYcOvmoOvboPUJsi5wjy53pF+U1+j/I3/bVP7t8W9NWLAvJFwryay2nYYumY74L7UwP3ek+C+4CxwHzOIPs9mUFOVJf8+BO5b7QHuexi4HzoL7v98GLh/vAXu1yWGPmekwWoH91ur4H5bFWRANutIXcfrtha4r+qAwtEA92ub4P6nKrjf0AH3W2rg638V/9+tDVB4ayBnCG1H6pZro2JgoTrCvc5wVFjTa3a2w/jkGTA76clgdlnC7MbHgPocTwHZfmJCDxJm/50IZzZe3cXAbktIXQxmlybMrjwJ1ESbALP9u5D7MtFUnC8gMXiwoAvZ9q11MOt0QWrC7JIZMPv9BKjpeQGY/fFgMFu1BMxuWQ5mqxPqU10C6ou9BswWHQ5mOxwOZrtOgNlunwezPSbBbM8JMJuYBLO7dEHfmbAt16aOgX42iyZW1CzFgw81wX33Ccg1xNjfg/Q3gdS3g9QngNR7gdR0bXq1ci1kd5dMgPuyFqgJVgWV5G3w9b5uaID719vgflwN3J83A+6PnQX3Bx0E7ve4GNzHdwE1IY8E90pC4TwJpN4CMv8OqAbeEaTfBvT8x6Aa8ypw3+7B4L7rPuC+1xS4H7AU3J/aBffXzoL7R9rgfnELfPS1paYZHTdzPLEwW92A0Ln/ogruD1gFOUHaS0D6w0HqdiB1H8j2Ks8HJYQVIPOVkJ+PykBjDdB7F4ASzL1Bahrdyu8v+AOor1IH9/9NqCnTgvwdcbe6Crlv0TdvrRb5e99TAzXhloL7/brgftejQX2qy0Dh+Bzk8Iz6ns1mfqAJxdP+4L79buB+zweDMtIycH/lNCjDd0AFRw186LqtDe7eTuhmyzUYAxYRQ3IhwUQJfFwD5kgI4ybmME9tISWkXUHPPwzqpO8NKmH/APpDfwXq7Kv9tIuy6c7Hgvu2u4D6HAeC7N8TlEGuBiWIWVCnvgu55LysBmqTJ/Rp7d4fHd8TfYzodN9YBfdvtsH9pQYqEI4Fhet80Hc8HfQdz4U5vndda8p/MKH3z4EBd9IwnfTHg9RDQOrVMGBvXf0Je/uaUHw9G1QjTYO6npPg/vSloPirgfuVLch9mtuaoL5SwrdcRQxUvGhyxQTfxXUwe8ElYHZeF9K/MPdPqlH0KNUwZjsvA7NHnAtmtWvAbN8u6HnCbOsJ0HzIJKhL0wWzP8yA2e8SZr/8Fmg4eQmYPf+9YLbfJKiNPwEaHp4EG7puMDA7dwLMTnsNSD8O1kuXen7r5aDh6lRCy7+3gvpe34UhZzfc4EkGZt9J5Ah5qoHZKYnsfnQ6olPWGy3JnZxsc827lGHU9zkE1Hd5FchKahFoeP16MHvguWD2rHeC2REzoL7RNAz07dZ0/a9PVy4yzmqDaoJJWIeSbW8T6sM8G9xbTXD/YxPcowS/pQoaRWqDSrCi5IrRmRitubkJuYlwXQs0WlSD/L7XEh6jUx5X0ce6qAFqu0+Caoo6qKZ4CqjE/TBIfROoj7AXjP7eymUw8Dwl4AF9SjrD+p33APd7XQEDzx9oQvqiKbvtgyEPg1fGIduv3B2y3tJog/Sh3teEvuM+MGAvwlU0fStHgr676GMu+DW477AtuD9uAtzPTCjeOxCRO6AWBeyAyZ361uLrbm2C+4ktGIjoj5oY0EfEF+qC34H7Py2BcE19gVavKZdNNtFdx8Fva4P3r6sd3D9TA/fH1EEJYmcYDv/YFTBsnj5LsXLPi0BNsiPAfccDYMB+Gh+XPrUh5c/jQfrngfvedXB/Vxvc/2UKBt6PePy1CRU0R4P7Z1vgfvg4qAn6EsjvVe4BWR/hrbwF5M7ZoEGG80DzUS+EYftj7wZlrFIGXLgnyJ1dIIc7Cp4ooPpN3HZvPin9Kx3PV9EEzgZ/2XdKEr3rBgf3f52EHLGVL0DWxx8T6vb3B/eZFhSOSYkaI5tsnrufO7i/bhLc734+qG9zECjcW4PU/UFqjMZFZ7zoW0Xf5wWz4P6hKri/YBzU1j8f9P7LQOofQWq65N8zwP3hS8H9izVQW78B7u9sQbbfEzFQQn02uO92Mrj/pgPu3SZoIncSVOI/DQbeX2JC+oeB3PkWaPBhBbif0AH3t9VAE7UToD7g0TDgzhkmpH8rZPfiu7ZZDapploD759owx//bcPB+hmk63Gkuiy+5vgmaqBuHHJGVb0DWRwSGuuOvwP2nTQjXBmass9EmvftYE9z3XwYK34Mg/9Fjb4DR4X7cOChDtME9Ssyr2uB+VB1Uoq+CAXfub0L6u0E2f94kuK+ogvevVQ7ub61Bth/xV/kHUEY5G9wvqUL/dY+JydOqoMGPh8OAO5Hxi/As/CC4P2QK3L9aA0kqVEE1VgPcX2ygAmAvGHAvBUz6n4Iy4I8gP7/LOLi/YRbcL094vqoOd7pLUdW7oi/xpgnIEVP5IWR9/MGhbncmuH+3CeGaSpxE1q/vXb/vUfRFoml4agfcJ2ZA4doGpD4SpD4d9Ae/FnK4d14J+oNXgvuFCfV5ElJbIJGYJqgv827I79u9YUBfJKgnLgX3n3dABUQHvH/dVIVcske8hVp5BCijLAdllDb0X+/fxLDu8Q5qCr4LBsLzDRP67mJYfuGBoJqgC5pXakLfOf9tE9xbHXB/xLEw4F7xfWn6eVrm20J+vt0h4H7EEtDoWSK7f2e7s/ig6Ewvc8gRYsthQB8RWKhbfQDcT21DuJYTXjZZx7vopBd9nMggzSWgTvkqUILYGxSuD4D0dwUl8B9CDu+Ss8H9v9qgeZYmKCO3QWoD3L9chTyxZyeD3Nkd1LR6GmR3nzkFynAd8HxRnsqduGK4/a1tyO9HRulN0SujXARqciXi7WH12ja4v6MFapJdDPr+Z4DcfwNInQHFxzbg/tzl4H5NFeRuEc4b26AWQQ3UhF0CGszZDeTOcSB33grD4V/0W9C80wS4X5aQ+8UV8eydhKcGWTOe/uWoVg7q8gYMR0j/jy1llBg9efESyK5tbB8lZJ5Oa4HmWfaBnEEqO4LCmSZCcnh3eDxofqQL7r9sQ864NzVA+g64zzZAnd99ILszNgXSfwjk73Hg/oRpcP9xFXJGS8lA7pUTwrwZxU3kjFJueunRGlfUgDGq+EYD923eDTn85f9r271ATc0aKNwJqR1wvznh/oeE+382QaNwR8Ec7hYZcuwEUEa6EtyfvBTcf1sFH74iwww/uUObmLcS/UBeUAP3PQ0GIiiGIUsZJf6Q6EReXoO+c/PflCOu6BSe2gQ1Mb4IA+FI8w1KuK+HbH73W0Gjdg3QH18FNYUSnq92Gq/p1yxPWQ5y7xrI7sV3hbrXCnD/fhuyc/Pd3dQCNb0aMOx+ZSdQRrkK1PRKzOeqEngTNAyfcJ+sg2q+L8KAP1UTWX+/48C93YFhf2iA3trSIEQb3H/YBve/nQbF0xtA6i4gdx8C8veeoAw7BRq1WwKqIdvg/eu2Nvhf3JWlh4sEFJ2zw6chR7AthGH92K6gJsAKyDPm/ZgoEn65pI3n5Yg7qwGadzgfsn+V94H0jwP9MTeC+iqngErAGigB1Qqp2ZqDp1/UIkNGEzP6Itu/HbI/kTFC3WkFSNYrIXfiiu+Kplao4W9h76YOuL89MexP5T/B/W6PAY16VUEvF+H1cLdQI+P31dpqoQzWBPfHz0D2Z8GBIP2bQeonwP1ZM+D+6yrIv7jCv/i+Il38sgPuL+qC3Pk+ZH96M8nSF6OM250Bsj8Dmo9p9ebDwps0Rtbo6+7wN5VYV9Fr02omegrM3pcwW1qBXrKZ8zf9AXrytoT9zWFg9pWdQNKw02BmUwmJuyas79+MC7MfT4LZ3z4PzH61D+i9JAIi9WMJq7RAM8YvA7O/ewKYHfZQMLuhDrIfV+FfrKC8pg5m73o/SOr4KpDleyTMHpUwOzNhDz4MzF55DJjt2AVJAU+CZvITen8moZve1Wu6acY/YfalE8Hsc0tAdh6RsMq2IGnhr4KiKRXJWrg2Cfo/JkH2Y8FcxGOhxvOxLphduB+YnfCPoHj6GkjK+vsgd0rXq5eB2cOvAT2cTvTTQXzX1l2QVPQUmB13MJhdkSg5ijYNskiq+WFg9vIzQN+XEphWwk7AHO/dUY2ixA1ZqMja322DaorjYKDkSB8yoD/dhEr4c0Cd4S5o4q8B4ZrUKCGbqW7xmJC8ogpq2y6D7O7Yk0D6JCIjNYZ/C/8rq0HDt/tBfq8Xz3Pow51y+N9pQvbvDlLTuKnU94O+65WgCcUHwYC7hUTCSP/K/pT1MR8T/t7PxID7ZftlfRKFkf2YTymeV04BhfcLMOBeyljSHwtSU4Ew8Lzs/gj9WB0UL8tgjvej5XGhCdmbAffqDKjFkRhIF38htxZVewxrRifvxhpoNKMOAxGSSl7pdwSpRRu4PGN8UBfcf1aFHBvhfpgcMwXZ/co3QfoHQDbvyaJJH/MY5T/yBSYG7Jefr6v+lSbkTiES0m9SrOv789nbyoTcj0GIVONJn0ryTRD+Uf4X8yyItCah1iNMbIB/9zQx8N6rTEhfpANcXcPdYrAilhPsexRoMKQFkQqkRl85CtSBR3eEW4u2br/NGG3TInQfbYL7Xa4ClRDvAnXmSvMU6f+xHIGV40ETmDMw8KmlNvy7mpDf620uIfd3AKnHQn5e9med9amNNIc7B5hQCfwtmOP5qIS3oebleZ+QHGCB5h63g/9phZv8+VuQGhl3Q79nxHtjbZD7HwepDwVJBuwP7i+fAfffN0CDLo3eMo9+ehxIMneEW7VeQB/STaTP5iekcv9YBwkHvwbM2oeBLKSqVWohpaq73rXIQI34hN13HMy+9nkwu28dJPw6CVoRWAezI08Es3NmQe+XroVHgdrsN4IeLk4ooAmz+yTMjk5Yb9hafYhvgtlN10LJ0Tm0C68D+fMBkIVvJYxyVOhBYo43C6PotBTSvv5O0Gv7gtQrYOD16OM9xcAW3AB6nhKY1JAeHnhljdv4/lgyGStLUwaQzVQzqo/yHpD+Dwl1MhJm70hYr4ZTdNZB0tgTICnqHUDm7wK9f3Mid84+aGD+ZZDx9qC+2SEg+3+fsN6EpfRp+YXZXZeB2XuPAUktd0HSzl2QfxNg1u/T6vbPefUzSj9g0VmcKTqnqUlg9skpMHv1H0G7rSwDBf3RiSw2Hl+zl4HZxQl7/RSYvbkG6rzWQRGcendmF9TB7JALQLuvJMze+l5QOp0AJfhp0B9SB73fBbPI6LF0NzL4e14EyoDTIHula/FnwewfvwTKsE2Q+P00aDnANCihdaH08hzaiMfYryyWEXx8TzD7yAwMvHiNge38E1A6uifk7/cJGLA/4jb8jc53JLCxGci74rx5ZzBbMQ6Kx91Bju6WsO2eD2ZvvBvo/0hoGcQEyF692LdNt1wxaHHLBChfT4LZf14AZu9fAjZ8pRWxZo85F8ymvwr9fD1s/89tEjXKKDWqvZvaoPHxpZCr0l74pX8vSE2X1FJbdodVoBnwJoSrGs6t9jZtCPdjgvGEKmR7ffF8p5ej9zq9ibJQ+ysYOz0RknOroM0vzoAcrpggqzwH3HujWu5JkqMlh4sr5hMYfF1dG/Yv/B1Si/DFcHiIBr2lAzkcEU+9CiGLsHQaoKZIuyeVO+R+6bvLz/vxUIQ7Bmtic4uXz4LC8V3I4Rn7KEjaeBwkjDkDRWRI6btb7a0UDX/DPOZ1Ynj+oja418ch+9NbHyP9z0GyZq8D93/vgPtNNfA73NXvo5QzSkRwzARHyL/XAa0RXw45AqwGA/oiwyzYDrL5fjMgkYk2hKt5/iNm5CPjZBvrdndtC9zfPAvZX7seNEp2GkhE4wHgfnILNMHWAfnRTijnJDwSvJ5s0BUJdJQISz+jrNhNaD6kBhvk1Tq99M0maBnANOT4iYnPxZ8BPT8UtPa+Cuvk9BqW4v/7TAeUAXeDAf8KyYqxfwYVWKtAMmnabOr/ZL9/xf/QN/jz3Iz1SrbhX2Y3mN+IJnI0TQ+aALPGFKhNeV/Q+6cmdFNcxTzBbU8AubMfmP2oDmb/eiKoCTcF6rNMgaryaZC702BDVb1M1npdbmD21SnIViu/BzWxXwxqyt0IuWmRRjWxHk2LidR4MYumaHZq/e66a/b9Rr4cEy7ran+kQ2t/cJCB2YGzkO16muKXvuizXHkQmH1hGrK9dY2PxXWw5Bv+HfkLGHAnCa/qf94btFHijmB2VheUHrq9HUb7TcmBV/8st+WapKyPEjaq2sjPV1dBM8HjkEuKofH1g03oeUp4Un8A2f7bmhCuqorvgA9f85Qs0VT6QhWy+5VFoNGzkojKq8dBM8ZtGPZuU5nMJ+vVr1EKocj5ZL02OFxVh/4Vsly7fQNyfNm/g/QPB8m2pW118grTcCCahqEfpYZQ65eqIAmEpZD9i+UQC04A9wNXgGTFGiBXW4nUoL1tlCe3g/nIGqWfa4sSLvb2DfOdu6Ca4ZmgGdhp0NNlCascANK3Exad7d5CI5kXRdtJN4FKkmkwi05pv0QpBhP67+vVdMVgQ6G9YQLM/mdnKAylLLoG1OnfGTRhvA+oJjkGtHZ8ArL9O+1dqWZ8zAxof7C0pHHgq19rYHZ+wn51BJh9ewayvdXTkPVDd8X/FoOAD5kEsydNQ7a9+mrQYMlZoLGfU8Ds612QvcmExV7T+c3b+a5cg5T1kaNHZdqYQIxOeC/4KjFi5VwyyCVI//nvTajPsDtIZmsZ5K1R+/7FvMs8NcolDcjbC4U/Cx4G2f8nLIO8krDvT/RN+gab5uYOU6MUn3NzB6QpvveNS0HzG0sgx1PE39Yng+bD6jAQJ6UaauDJGreRnkLm7VNVkPDkM2DAv5RBlR7eBNotpg5ZqjkGDdZw/HbUzF+j9GJs5G/0KZ7TBbNXzYCsx/h5+c0Y99/VwG79CajCWQpmr78SNNrcBb1c1BwxTRDOxa74t06BZMUSZv83AbJVFGW3/QDiLbPH/QgkS1UHmUdJG32SbPXOeVfEZwyrP+mhoM3OvwHDn7zqaDC7aArMrpkG2StaGv34K78aNX5RIyyYBrOHToLZ3vvDwEupyafptyVg9oujQNN1M6CWRhfUMljH4fIBlzfJ7UZnlBCiSwvgFKSjayDZwrNhIIxF5748Ybf6rpDt/WgFmL19TzD7eReU7id6xzr0+jqK0GnQvEoXzL75FsjuWCln7fgUMDtgBjQ/0u0J+UXVHu4OuHCnvF00BUp4k6AtZxOar90e8iePjUPWX3oeaP5lCrK51yHr+3d1Awt/4jiPe9VB/8Ms5AxQ+T4oI+wHmse6CMy+24W+qxaDTNnk9rnbZBklIiRtGKmwv3tvkFRq2mxBEXI0KMGfBvN/3Nf3B/WBXgSKuC7ovaIkixIqJrju3QRN2J8B2f1KFdQW3xEkJDwFel60oaNkzW/cye+iJig+c/sZMKufDYq/p4H6dl+GHBdXXgxmP+1CNo//PZsUdzOpLdCP53i+zTSoj7gTaC/li0Hp4jOgdJJWaup4kBvA7Ps7Q7w9UGBmo9vnLtqQo9T5+ijlZmJ5NORrNdDxDWfBQJt0lHBj+mzZ+x5ovuMYcH9jHbQCrw0DvhZt5ZUNcH9vDfTeGGT/jqxDXnlX3kFywMVNenuH6aMUo0f9/zP0Rfx9vgmaAFwI6iucDzn+Fl8P2qVnHDY+in7WBPeHdSH7Y8eAZO9OAfeDjgP3S5uw8f5uqAsbX6OU8nPICoXxE2fA7Jjng0qqn4Ke/iKRTwaKF0L9RwO75UQwe8+1oGUvl0De4TGs7zgFElmaAdl/LMj574PZAxqgHRB7XSOrTIFKsBmwO/9V9BWiRraiaRR9wPvVQf/PS0F9x4dDjpabtwONSs3Cuov0ZBfWvEsyoDLaZwnof3ggSC3WG419HdQn2gfU5JuENd24PXVjm8qzWyfA7PoZGHb1n44Bs+fdAwaeX2egXngiPyiGJ8Pgph+C2QeeAzp+4kSQfwlF8AQoY9RBW8JOg+bPvgK5ExmyYDEIEU0w+2u5yoMXxSBG2kNDcbD7OGjCLyGDVLPnyLlmJZhdNwPZfH3vtpoCs/sfA5KZPAn0Py4E9VW2BjXBLgYt5JuA9fVlE9of1eQK835VPU+ddWkV3P+tA9pHqgPDL/2mAe7PNshV7tgOkPWWRscG9OmbpS/WVSz8V9B+We3e7iblrT8j/De0QFu7NmA4PJvb5A7T9JrnQ+Mgo0MNFM9HgpZVXAj5fzhwa9AS4sQ8jq7lcciExXDx3R4Mmhh+GEj9NqjJ/nBwf9MUrMXBzfxok9Uol3bB7E3XgllarlLRZtsTkHP2HtOgmiHJsWvP6OWgEuxPoBIlbRkq+6PE2dPGbKr6XwBqir0cJNX8BVDJk5A7CXVOZyBLAfebHnbHuPrLBgoZGg9p6Ns5eFHDTkyBPE87Ryoez4ccmJX7gEr6Ccjm63sXo5hFhWbbvA70t/8ApD4OtLR7F9CBTYeBzGd6olXr69/G2t/4jDKdGi/2u4Q+5KFg1vonUBOpAgPBLOxHX6G5E5g9dQL0ftrdQn/Q9TDwXhKpkP6uCfNrQX2YX4DZGduDMurBoLXckyAZs+ne+L0X4vwW/8yA0+k2miRl843UVyZA31NkXCtdvW2QZJg2sFN4J3qnHJesbXZtiOPfvQEK76NB3qbNvbP3N14EOkFsGrL5et9FOpjZVWgvglNg2JXVe4BOLlsKyjhdGLa3uU3UGty4KxZgXTMF2a2bPgdamHMsaJh4CrQJxBTkkuFe06DNENqgeZGdQelmO1DCeTioBkni+HI/+i5pZaL0xXXzS8Hss3cFubMM1EeZAk1wTcGA8GV9TJjGRRMWIhmxjiX6OlGxxSYOemPtV5ERo8S8uQ7qHL8Ihl/1+4PMC+nTG6dBwpvFe5t9gq0Ib2Tknbqg/+c3IPU0yOG+cQrMrp2AbH7TJGT9yLuSfzFcPH4lDLxVTMxVHgD6Px8DyiipKS3Ro0kYsL+Zbzc6o0RT4U8zkEO74CTQh70atAvHOKgJlDA7dAr0R0z2dhlJezXo9fd/Hsz+eQIkvXo+6EHsxvJZg5HXzZ8CSQ8/CvSHfhfMPjQNmlibAr1e/GHRmb9pBvqbr9jJH4Ic3gU/B723KqGbEdcFBhajSVaMNl16Lsg8hnvi9WIlZBJJW6SVfo8ErTDcE2RpNhG2N72a1oXI2SI+rkyX9IcnbPVXIHt7TQc0sXwBaEb/YFABNA7Z3si7SwwsZtpveR5oEPQhoLeK81uiQBy7AVTQnAyK/jqMdH3zPYhO7yh1vs587JP13gbkTt+CrUD61CbL5vc4DPKu6DHvUpYajs2u/24a8vu9mJA+NklIBgPPY8FYsZvKgiZoN/ezwf3cBszR8yvmE65qgfvxHVBnchbk/t+Axvc5zXsnqUeC1ApIXQgDanE249hdQZ3TF4LciU0rItyfNiHzp4HsXQRyJ10D7oc/m0mNXW0qB4PCE5tRxO41MbgSu+e/vSIUvuL7+vEwX/jiu4r94HoZRv79J2R/Y0/mrS4A7aF8LGjnzxrM8f9tZqONrlGi5OwPJxZ52n8P0qTdWgpDKZf/F6hEug5UIh0JZgfXQTVM0ZfoLSwya9Yhn0J87iTIoaLtHE0GXwQyjwUppxlYHFT1vfeDaradQUvGp8HsyQm1fLq903/vUgft49UFzeRPgPYBOwEke/Q2sLym/X8M1LZLZA8jYLG2P50zI3tfTpg9OKFjjBP993wPkL107orUcsTKaHNc/ieQy/+W0CYHCbO3JHTUWaJfI/ZFV2IdUnzvfIELe0Wb1ncBvVTssWD7JaxXMGkmfj9QNJwFiqZPwnyebIbno2qSMF/nGqX9XqESIV0qaV4NWR/mZfUuDwf3s6ogadEaqHhoJTx25zi/BjoFdxkMuJvE+KV/IQyYF+Ho+1fsdl85BnR46afA/cM10ObVTZC/hVRt+CuTdJ3fAdVMdViLP2V/y/r3mND7xY6NvRnQjXCv7P6m0ifZPIUrTgl4tYnbIZzFjpaV/UFSzctApzCvgA1fcVn8jRusbHyNUowWxeYr6X/iJ21P09fZ2IVg9pDvgCqaI0A1yKdAo2Rbg9mSDpjdfRL0vN4TunvYBGgHyy5oXckSUOd9BmTvdLDRVzFxtuAdoJn9bcHsdTeB5jtfBJIgqIJWQNZB7k70NnfoiVqYfdBBM//joOHoKVDJl0Qu5H0h7FY5G/R+Qiv4loFZ9ygYCGZqcmlG/CSQkOLpMHAm5XkGm+9KTVj1GQ6CvBPkL/4BZP4K0HecBFqRWOxS86CrQJtizIJK/FWwDsEsOqkx2hcLO3/6btBM/FNB/p0HUtOpq6rxtwbF01RPqHMdfNq0VqLmGKVGyT4qK8Z6lNMbkEucyuWQ9b3OvfvZTXCPtfhxtuP1bdDZjVXw4auoYeJBnBdygoNkk2qQ/at8DLLe0ijKgP63Jgb0KVpzX+acNsjhea44czI24451F7c0QSsDG+A+NQnD/lW2A20uMQ0qMRuQ12HEZuObTa31avAbO+D+niYonGnbo7yPWy/VKZyz4P7tJnj/WufwFf5F/FxWBfdHnwcD8ZO2f5HM3kvA/YkTkPcB63tcuin3dUuPN1g7cnOJyDjzZRRvJvzLbRj40CLh9dq82TyWoM4b4lELtQrziJDrW+D+wQboj0wHrmf/Fr8Zsj7+8JFqcVz23seB3K1BntmP81Rid5b5viM2y/i3KswRjlSkaonsQtCCshrM5+qmfx671zeXgQYVFoCOc1gKOdz3/ga4/6gFGx+OizugzSUOhexP/D8LXgf52O/rHQauoqnsocajWPBXNo/n66mO9QK0Eb9F0+tudVDVvBVk9xacDFn/uxlQVT0B2XzorhiuHDIvJqrCfKs6WO9oRRme9low2+sg0HzE20AP0h6/8dYcahotU1OjBhqudFDT7ETQgrS3gGScJkD2JEpZmZnDnZLRrdOgvurBUHqItpg/8VlQvHSLTRXmsLo5jW6bBo2FzICaPD8B+XhUQje9a9uLQU3DGQjTDVCL//fKCVC8roBhdxb8ELTUfCXkffT6Nov0EPN4n5sC/e9ToGHlyd7x7H37G3iz8Rml8Hi3Lig9vgZyaCqfhKzvXALzT0fkN0p3xbxESP8uqIPSWzED/9QZ0KDUO8Hs8V2QG6mpJTWu7dNxo6HrD6t52kVaCeUZIKHLJWD2HweAhDr3A63460J+fdRd7CazXQ3msBU7NxZ9hTls3C5Gq+ugvtRSkJfp1GPFw7shB2Gns0EbGM5ANl/fuxjM+/UkaL5tBagASienqc93f1BfdA8wu9ckZF9iNDMKll/WQaOTx4PW+E+BCu4J0HdM9Pqa2YX1vIsm1ih13qZXw8Gv7ICOrd4achWaljeoDd4Llvvf1MH9dw1Yz/pv0HpUraPWbhdNtJ+2QBuxdUFNileC1LSiTuojQeGLTcHLG/mlgOt5sWFcHKSTjom3fC7LDU1QAIumaLkpcEUT3F+4Ety3PwVyvOz+GMinAcul2/X6fQd0XPhRkMNV2Rey/omHgfvKKmx4EOOEr7e2QPGxNej/OB3U5EsTU9o/rph3i9HJ8DHej77Rpx3UhD0X3J8yDvmgpXivv19b32Ddbja6jxJSoH9qgE7TXQk5YiuPhazf/jjQBnhFAu4Hs9RZ75uXb6LvUtj/QwskzdoGWS4yUEyExuuREF4xDfpjXg0axj4HFL7jQaq28Usb+YU+NrN+vQn9kZeB7MWxELMLhPtrZiEvDAt/b62BNvhrQZi6L++A+5KloD94CpRRqpDtbfa7og1/gYOO+TgXFC9fhvy/RUH3/KXgvq59tFHhj5PCnrMS5E9MIH/ShDJKWkGmjJtKMPdvtSG7Fhkkjn2faoPC/xTQ6clLIB/gFG9GhVAuyOL5KHWjM0p0qmNLzTifPSK2X1In2awc8dMOSkDN3hFrUUKMCmjfvCixI+F1a+D+zJWgQ01bkBNmzPyXI+b9TdARfMdBDpfF+R7PMCHzJMoh9UCQmoQylZBuAY0KfQjy+weuAvdzqqDlBhpqYLAhrtgaNvRXtiAvF7i8CfH0dlCLguWzbdAKx5eCdnbcB/J3LW6C+7/MwsaH62cNUEFhkP3htBrOqxn7Prg/ahKGD1GNUdM49j2d+iF3FoyDRkF3Be14uQJ0VmcNcrj7GSYbrfVuozNK2fXv1UARfTMMREA0YQo1jkbrrxdp3ijKro3Wx3DmyhooQpeD++5bg/vpNdBWqS3I7kTGDJOvOmhY+CiYI7xXm5jDvPQ9Y/8K2d74saCEVQfVNDUIX1UiJ7I+7kaZx/PNpb6+CxqO/Qloou90yN/TW9jlfloDcijWN7xRE33SwX2Pt4MS+AWgGruYaNz6DMhN1b6PpVGsK6ugJv8s5PBG03rrk0DuTINGL6vQd23k/5Bt9O42OqNERMWM+q9roJnULuSA92uYIoGNd0F7zSaUcJqgQFUTvdCt5Ted/qDnsUCsuRyyf1udCTodOJ1noPH3JmQH4w8Lk8ua4P7/loNkvCYgu7fg0aA/stgzt3e0nJ6HTFQp45S/90GHgvsZCc0jNSF81+bUTZC+kcgPNvFdv4Yt3L26BSrZZyF/b+U+kPX7XQHu57chBypOTssmpbvosxXGf6qB+5FTkN2vvAekXwFqis7C8AldsddB1CgxL3fvkyG7V47/Xa4D9/clchjL6SA/WfNuozOKFxERbfGbW6CmRGIg4HFSVzoHJJuf0oYcqDjWOpvMfRdNr9hK9ZwOZHcjohZ/DtwPWwk66akBA26W/sib2+D+8Sq477Mcsru9syCVYbaCbB7+9dW04Eb2ngvZXu90BWXgWdCJZDUYCM9mvo3d4iP+vlIDHRSVhl9zOPvfkW7UtJ0EFUw1GAjkPBk7tuKNeI0m0D4rYNi/yqGgeD8MFD9FEy18jHDHRPVxDVDf5KUw7F7/O4pNK57cBfVpiwI93I0uROjL6sZnlHCxVCWGlO49LwUlmM+B2p6LIX/QYydBJWqrd8z0epeonTSO4b9uQe4cRwQtuC9k/55ch+E271DJWGSgH7XB/SUzkN0J91MTe8kc5kUCs8tA338qZHuVWXB/4KdAu8ckcp8torXct+qbb+BNTIDG62ksQeFftB/k8MX3bVsH7b4yC/FW7gNmk9Jd8b+EaRRoZzRA/hkM+7fV40FLxZeDat4OSG2B968ra+D+jJUw7I4l4cth890+Au7RR+07WEq/ffPiZtNllJLLV3VA55+PQw5wHAHXm7Bz3/aJ4B7HEZSc8f7w9DyjYn/sgPvrl0H2b/HhMKA/cbFw/2oThnzzUQnz6g64v24pKNxfhuzu2Mch6yOhDanvMjFsb8cbwP2ICcjnu/dDWGTcfhO1lBD79kbdlOxf6ZD7dkPhTAY6X2YluH+hBtnx/jEZ2WjNu+L/CuHSSx1Uk07DwPe/yIT0SVpZo1XXgfuHEnqhCPdNDcheXNIG957U+YB7Rbj735NyZH4+9mRw/7sZkIhRB7K7o+42W0YJDz/RAgX0XjAQ4LQRnkraJ4IOKFoO8ZbUyOGlP3jAxhq3cSDRl1qQ/YkIG3snZPNXLgX3JF2+hktr18Sw5BcdlNAMVEKeDVIL2aQk5H9a9i/C0VeTOLuevwakFn2dykdB8wevA/c3LAellxbksMUewtEUyU/mvosEG8Pnn26DBj8OgYFwxinFxWG2hywFyeC1IbsdfdNsMvddZKgvNUGnRr8dsn9jrwd15j8GGlTpgvtVbchu9vtWxShdhOfkNqjpeAhkd/vxnCaWZX4OKL1tAxoN64JEcTqQ/Rl1t9kzSqcGGg+fhoEPKRbqLH4ZqCQ5BbRJdwMGghsZZsBobbcX10Abp6Xt8rN/vX2ipP8ncL/XGeD+8w6szcU1n4XQ421tcL+6DUrQS0Di+9+A7G//D0tH9c1hHmL3xXzNgnuA5hHuB9n+fbrg/rGERtESvt5XnPb87KWQ3Y9wbnVX0P+xC7ifVIX19qb/wiVNUOd9FrJ/lW+AhnF/Bxo8eQi4n9IENbUSciYKykZqlOcCtEgXMQjz6Csgux/fM0rd9h3g3mqC/JnnsihhRqrrmVBH+Xf0OOhDngP5g8ZeDFn/OAP3a9swyrXR5jEBdVwbsrv2BtAf8xJQCXZC7zyO42ugNne7l/B9fa+WQ//6Zht0zsdKUA2zAwyE4zEmpC+EL0f9kUxvMsE59hQYeD+9oOHQVaAmURs0U57oByPfRPiK/zH6KJ910Pk206AMPgHypzi/5n5ngzq9Rd8vO7hudzGK97EmKON/AuR+2qdK6sHFuTnFis/96qATxzqwFj+K74l5t1VNcI9O/bZjMBxfvcMo9b9/ATRfNA7ur+rCHDuQloJQCX3vD9t0v2k+cVqyO5OgPWRnQLJSPwet4zgKhv3b+nyQkOPJoLNUW6C17zMgma6J3i4l3gW9P5Gw2KGyMgFmP7kEzE7eBrQ5wc9AMkSnQpb9uf8OoO2ODoS8Rh7JIJc7sebdZhK2zySYPXIG5N40yL1i3UwIS14+CWYnVkCHxe4BZr95O1j/WrAQtHLvWSDjXybyJhphs7QyMIwXngBmL34EmD2rBjpRawbMdqpD2B4O5/V1MPviBGjPgAtAQoWzYPbMBij+Etr+aRL03RO9TdNj7bt1E2aFkOzKadCeB68AyV6tAMleJSSsuC9IlutuoE3ZTwUdOjsNa1l3UvgTQrXxv180A1rqvycoGrtgfRk+OzFhYx8Chf/TYPaw3UGyfNeAFqrWQe+Vr8gom0stl9SvGQfl7ANAOT8dvz1HCZACuvHmYw8EuRMz7uFumspdf/erddC6jYRKwKJpEfFXPscjOt/ntEAl+HJQCXsqZP9jjbgVK/x6/1N+PqR/pQk9r0K2FzXD0XXIEgLXNiBCqXmrDvjQFX29r7XA/WUzoKbzKtD/9knI/g2FK+K3rN7PxPB7jzoW1MJqw0Bwosk1YJRuw7w0rH9DAzSxeBgofhdB7jv2w5m26s3hGL8K5jiXp+S+lcOxqfXlCZ1rq+B+6DLIw8ULHwr6gHQWmjpd7wPpmyD1BJD6bhjQF00qFtimJbZphlHPy39UzOOkcw70PJ1VKH92A+mfB1LfCFLjiLZikwr7Nci85O6+06C2fA204KqYh4l4LBcUsZn4Fzvg/rRJGHZ3XZcI93Z/VwJOC0iG3dnuHiCh0MNA4WyC+jgdiFDOr17dBPfvtMH9nQmFfwrUlNkDhv0vx1fo9zgX3L/SBmXcNgxk4MgQXrrCPNTicfQdT++ARiU/B5IwOBYGwhVLm4v/cfGjQcPFDdD/VwVJdLTB3dsJ3+wZRV71rtKHfdtBoi6vBP3RT4CBDyolyIjgITVVxevwXhL3lb3UVJMau4u8wsQ6vB8z8IXQXjkcO70UVKJNgHYLScTHKwHUIOvj7tcdcH9XA7TwbCEMhOfxJlSgFLJlZX+H9B8xofeT+P6AO8miJuZ+COpDTYIyTgu0YKwNPnwVCaX8IDrbl9VA6SldEtlZDu4HjIP7jpMwHI7XHwYDZ0NWHbzfVy57OI8+5ltiZer2h4LS1e9g2P+It0WHg3tIdlzXBM3rJeTp7Z5Ryh9ajGK8eRL0Ic8CVZWfgdEftmAMZO/rMGAvtY0H9EXCiAgpq5U/gOz/Pxh4r2jKjB0PqnHKS4p3NjFgf4Q/ey8FZYCEBidKTZ8Y3o1oiQnX2Ta4Hz0FKqmfCNm/WPK8aCuQeVpzLzVq3nJ4Yh5hKxPZnYiP7c8HHel3ELj/41LQtk41UAZvQYRSalHghQRGzLyHjRvaoGMa2pAlIc6ogvsJNXD/VQu8f/WHm0sFat/CPDchw/edKkg6/BDQ96Z9y4a/O75/0Y6QhT1DxOamKsjTduJ2rFFKHxri+SFu3d8cuvxHl/S9zrxmileC+4U1cP9uwv17HcjqeU2QPqEZ38NAJfQbQBnhaFBEFk2rhbuD+/23Bq03aUCeAPxeC+ReE6QW+vNq4P4/TXD/fg0kHt4CCRPWIOvLUsR94c2iAAnhve83QcOrS0FNiaUw+o+PBDCkljPKYSZU4KRL8XAuqG3/ItAo2KWgCb2l4P7uNrj/ogoavm2Ae7lpGd8RIiZeXFGj3twAvVcD934N0nTwyIi6W68rarivN0AZ5bmg7/swjI6vRc8A92YXVMO1e6dERzhTNmnr/fUKzaa0XCo5Qlz+/nUY+LDoU6T9sbL5LgvB/TNtGP7DRgX1xx2QLNEqyO5ZIYNWOROUYPYG9xcsB21n1IFRro42jwh/WwM0PP0RcH9RHZTwmjAQ/iJe+hOJRYkWQqBf64A2W1gJqnE+DAPfUSpY7FjQ8x1gDnuxfOBJJlSAPBWUcW6DbL9yJGi+48GgNewT4P6BJmhTjCZoArfRW5cUwou+sVcpnYxybmUT3F/RBWWQ54HU/4X8HeUCZKsXgAqyFqgAaPaEVRGYuVX6yLim2z/rFSVrdOa+VgX3uy+E/IFjxc6C/Q9NG7O577IXeG/XI30Jwvo3NvMnRUnWn5kuHqU9FGRvmysg+2NJajHr0/k5N2sXlQ5kdz3a1EVCHniyxm3MIMfxFP3wFwl6zytA+4tVYUCKOFyJhBITboV5DBqc0QZ11sdBNcHJkMPf969lQhkhjtdIw6WyFxmoVBD13yvCOZ9+/FJwf+4MKAPVQKJJDVBTqwlaCVuIzoTUd2zW4et5xf/cbYAWaHVAfaJHwcD3F8KQ/fB/0YSeF4NAd78KtKtMYiAQUcMVRn++jFJOYKWAfaoB7uPHwcCHp7XcKvFWgczTQgkl+P3B/R1VGNjQrvjQaANHxokmwjOXwoD7McpVSiB7HA3uM20oHF0HZWRGOctE9neHB4NWOCbW4nA53gqrN1QhFxhP7YJEVJZD9sf+AxR/TwKZvwykps01BuyVvr+f0MI8hA5DDfMR6n1XgoQYWQ+nVBeiOe9rgFoGVdBwdkJN6Rq4n9cB93YV3D/dAjW9p0GDEktB4Y4VqeF/OpVa5pFRkqiGCorjINfsz10G7pfXwPNVKpgU5D/TVQqItxL9Nmu0cT/aAH3YDAz/kWOnQzZffAi4v7wOWu9ShfyN0emLTuhsA7RdzmGQ3eltDi192gUhm8cw64VtyO6OuhuZUYo/dNG2INmuq0AZpSghR7lXNo/lDWXz2PcsVi6+YBYk5LgU8vekYCgVDKnp+PE5zItwl6Vzx/YC9aGeD2ryPA7W8n64U1K3WQEqIM8FyXBdBHm4dyicxfsL/hlUAPwtyN9/AakhCXC2CT1/Nsj9U8D9PzqgQYtEORazXlF0B7uiqVGUnNFWPLUKKiEPhfwHhDToqAi8z2Hg3mqA2qCdnth2+atjlOceF4HcL5p2vR0UFcH7QfY3SrIfNCC7Fp3cMJkvo1hR8u16MmgCswrxttSIj8IoRHvOqoGaMg0oHq6D8tM2aL+yhCZAp0AJcXvI39ePz7RdkYZZ9wLFw+dhDntFgu2/F/q0J7PeOwCkXgtSXwJyJ517sx7uFe5W7g5y57Uw8P7TTQzoIxwlNTbUu7oBAxFXiu94csfLKBGyaIoVNc2qBmiP4hZorftyyBGy6GiQfjuQuhPk53c9A9yfPwPu/92E8Cyrp9Ygv2fngv6Qq0Dmr4X8fP9Dwf0nTcjuhNRsLJQa1UepbAuaP7kOlFFqoBKuAZr4aoBGYxLaxKIOqoGWgoQ/zwOt3GuDJhIb4P3rhhqogKj1NrnoPyhuOlVw/3oVNDy8HDTqtxzyd6Z0ptQS6qIngWqQC0EZ6Vug52mT7Wwv7M+rrmMTbl536ib0fz0CNCjzfsjhecA4uH+tDUUkoESLZsBo8Faffge72g7uzYRHiRpNpfigH9VAxwF0IUdEPyKXmZB5UeXGcQ29U2e1VnsFaL5iKWhYtwPyt7hCarbvXrqRe8W8S+VVkP3d/wrQJgbFPEi4M1+N0hPhUka5CHJGifdDkuHtTZB/vwG1tUsL4Hb4BLjvdxQML6EN90KNTnQMpoR51Fg/c9DS5SZolG4K3O+5CvJ3D8VPxNOfS72LCYWv2FR8bH9wf/gMKIN0eqOG0QQvixxFPJRVKxvcYfSRUUKtpRH3nPMLfUxspXjR12z1Yhj4Ix9tQiVMUXJXvgL5+cLloDXaV4FGbWbB/cwqqARfCXJ3V9B76QxJuXdPkL6YKK38DtwfdB6oU1oDDfsm3GN4eChhaYSePyG2VI0lqrFP2iuXgUrsh0AOd6UB0hfbJo2dD+73WQ7un2iCRuu0ic9U2/3FM6D5oAYoXB3wfp9Qd72r1HeMCcdYt9PtgOKnBe7H1EHD7Wl3cpXgOoKWQ2ijqTX0vZs7A93CARIaDS2mD16/EvJWtf2MUU5PxeePUviP7hRXNE0+3gAlmCtAJW+xoi3WoVQWgxJY6YCj+EMrV4AmrIoN6vZcBVpwdCbovYtACWER5IQb74c6cRC4R1PubS0YsH8fE9K/FdT3ehOoCdQG979fAtl+6lvr3wr3y+rYY0DrbHYHNc3OBH1/sfKysgLUid0aNPE6Ae5frIH7FVXQ8Hqnt1l3fyLQ576i8xujhytboFHBDqhBkEQFtNZ+ObjvezaoQHgaKH4PAI1WvhU0WHMjaBBgV1CGOwakvhqkXguydyuoT/Vh0LqZCdAS8DpoHuUwcP/fFgzIbJU/o5PaKmXTkfpKPOlF/J3n9/Jp0BabB0M+9+eqCZCY9XdAYufXgNRiC1W7f8J68ymKj28nzL6eMPtRwnq7vet5cWBRb2Zf+tK17SxoC9LXgU5Jvhjk32KQ5Q8mbLsjQWLx54L2AN4LBhyLg4dSRh0wj9tiD+O04PJRMvxFQic0Jcw+lQjbQ+p9J0GnLKcMreUQCVlLbX6pxTID3W3QdWsXstR7bIF66QToPKUu6NiHCuQzLOPAqIXLQGfdNkFHDE6AzqmfBJ22MQ1rEc+3jbwio/zFq0UTLTrR0Qb1VsL/qwpacjwOamsfAaNLaCvmU8b2BdUg6ZRi2X8QrOW99H/IflGCpxbALnPYT20V2RuH4eeLHgIyT7I9Un8Gw/Z6f7/MiyPjFmwHqkl2gdH2d/w6aAHYSpA0cAPUR+rAhqeGWFAVE4Kx1j2WG2y4y2t/MyasQ0arL/279tfW+amts82/MIvRNIgJxgh+iIbETo5HToKaastgdMLqJ8joo/x3RSihx35UIbVbZJS+/dCHKEnoR6mxM2U8jy1ei5WAsa9YjMJVzoD5w73jatDez1MgsfIWaA/oNkTsDKilvsrAkw27LZo6kWFC1itktPpqpzd83xclcZ5o1K6stpg4yH3AGPTxzXTdaZteKZ0N/sQKvGJF5OAj7i+ug9mPE2bfOxwsHXd1np6nfdmkXrUUdBNX7Ip/nUH/WvBmUBPvXaCVni8AqV8EWSvC4d8BmT8K1CR7Cuj4hzHQysczQeYXQt95HV2W6Ad48TEgZ48HHVe+Aswe9V6QfhLyQWhb12HAvS23a40BLUL9K7nKGWQyLfLtt733qoPOVZmG/lmbdtk0mGkrfGH2gx+Blhq/BpTBumB2yaGgjHQ5KIHfB6T+CZQRfgBSzwHLa47jOO3enqX9JcX+TZC9CxO23f5gdu/HgdroK8HsAdeC2b5LwOyBe0M+Wm/3aZC/CWW4YslyZNS+GvFRjicFYcul+Iua6q82MoqEEeeDjHVBsTGi83rTFJj9MWH2py6Y/aEL6qwnlGHqoLX+k5Dt3Xg4aA36LGgNeRe0Fn0WdLbl58Fs+xnQATozoEOCu6DzZ6ZAgwPTkA9d3qEONnwVGWD1FOgPnwapk729DPovbMkg/aiY66bIKM2puR7+VZtNG6gqSZhNJdY5SlZ/E1SjPBbUlHosSE2X1BYowV4CUg8GbZ7x3yD1dJB6BqyztzmD98Znje3lhKX6c3I93NlidY0Y+P9rvcCqey1AfwAAAABJRU5ErkJggg==;" parent="1" vertex="1">
                    <mxGeometry x="513.16" y="210" width="72.14" height="60" as="geometry"/>
                </mxCell>
                <mxCell id="18" style="edgeStyle=none;html=1;entryX=0.5;entryY=0;entryDx=0;entryDy=0;endArrow=none;endFill=0;strokeWidth=5;" parent="1" source="8" target="11" edge="1">
                    <mxGeometry relative="1" as="geometry"/>
                </mxCell>
                <mxCell id="8" value="" style="shape=image;verticalLabelPosition=bottom;labelBackgroundColor=default;verticalAlign=top;aspect=fixed;imageAspect=0;image=data:image/png,iVBORw0KGgoAAAANSUhEUgAAAGUAAABUEAYAAADLyiWEAAAMTGlDQ1BJQ0MgUHJvZmlsZQAASImVVwdYU8kWnltSSQgQiICU0JsgIiWAlBBaAOlFEJWQBAglxoSgYkcXFVy7iGBFV0EU2wrIYkNddWVR7K5lsaCysi4W7MqbEECXfeV75/vm3v/+c+afc86dWwYARodAJstFtQDIk+bLY0MC2BOSU9ikLoAAbUCDR2OBUCHjRkdHAGiD57/bm+vQD9oVR5XWP/v/q2mLxAohAEg0xOkihTAP4h8BwJuFMnk+AEQZ5C2m58tUeC3EunIYIMTVKpypxs0qnK7Gl/p94mN5ED8CgEwTCOSZAGj2QJ5dIMyEOgyYLXCWiiRSiP0h9s3LmyqCeD7EttAHzslQ6XPSv9HJ/Jtm+pCmQJA5hNW59Bs5UKKQ5Qpm/p/l+N+Wl6scnMMGNlqWPDRWlTOs26OcqeEqTIP4nTQ9MgpiHQBQXCLq91dhVpYyNEHtj9oKFTxYM8CCeJwiN44/wMeKBIHhEBtBnCHNjYwY8CnKkASrfGD90HJJPj8eYn2Iq8WKoLgBnxPyqbGD817PkPO4A/xTgbw/BpX+F2VOAletj+lkifkD+phTYVZ8EsRUiAMLJImREGtCHKnIiQsf8EktzOJFDvrIlbGqXCwhloulIQFqfawsQx4cO+C/O08xmDt2IkvCjxzAl/Oz4kPVtcIeCQX98cNcsB6xlJswqCNWTIgYzEUkDgxS546TxdKEODWP68vyA2LVY3F7WW70gD8eIM4NUfHmEMcrCuIGxxbkw8Wp1seLZfnR8eo48YpsQVi0Oh58P4gAPBAI2EAJWzqYCrKBpK27oRteqXuCgQDIQSYQA8cBZnBEUn+PFB7jQCH4EyIxUAyNC+jvFYMCyH8exqo4yRCnPjqCjIE+lUoOeAxxHggHufBa2a8kHYogETyCjOQfEQlgE8IccmFT9f97fpD9ynAhEzHAKAdnZDMGPYlBxEBiKDGYaIcb4r64Nx4Bj/6wueAc3HMwj6/+hMeEdsIDwjVCB+HWFEmRfFiU40EH1A8eqE/6t/XBraGmGx6A+0B1qIyzcEPgiLvCebi4H5zZDbK8gbhVVWEP0/5bBt/coQE/ijMFpYyg+FNsh4/UtNd0G1JR1frb+qhjTR+qN2+oZ/j8vG+qL4Ln8OGe2BLsEHYWO4mdx5qxBsDGjmONWCt2VIWHVtyj/hU3OFtsfzw5UGf4mvl6Z1WVVDjXOnc5f1L35Ytn5KseRt5U2Uy5JDMrn82FXwwxmy8VOo1iuzi7uAGg+v6oX2+vYvq/Kwir9Su38HcAfI739fX99JULOw7AAQ/4SjjylbPlwE+LBgDnjgiV8gI1h6sOBPjmYMCnzwCYAAtgC/NxAe7AG/iDIBAGokA8SAaTYfRZcJ3LwXQwGywAxaAUrATrQAXYAraDarAXHAQNoBmcBD+DC+ASuAZuw9XTCZ6BHvAGfEQQhITQESZigJgiVogD4oJwEF8kCIlAYpFkJA3JRKSIEpmNLERKkdVIBbINqUEOIEeQk8h5pB25hdxHupCXyAcUQ2moLmqMWqOjUQ7KRcPReHQSmolOQwvRRehytBytQveg9ehJ9AJ6De1An6G9GMA0MBZmhjliHIyHRWEpWAYmx+ZiJVgZVoXVYU3wPl/BOrBu7D1OxJk4G3eEKzgUT8CF+DR8Lr4Mr8Cr8Xr8NH4Fv4/34F8IdIIRwYHgReATJhAyCdMJxYQywk7CYcIZ+Cx1Et4QiUQW0YboAZ/FZGI2cRZxGXETcR/xBLGd+JDYSyKRDEgOJB9SFElAyicVkzaQ9pCOky6TOknvyBpkU7ILOZicQpaSi8hl5N3kY+TL5CfkjxQtihXFixJFEVFmUlZQdlCaKBcpnZSPVG2qDdWHGk/Npi6gllPrqGeod6ivNDQ0zDU8NWI0JBrzNco19muc07iv8Z6mQ7On8WipNCVtOW0X7QTtFu0VnU63pvvTU+j59OX0Gvop+j36O02mppMmX1OkOU+zUrNe87LmcwaFYcXgMiYzChlljEOMi4xuLYqWtRZPS6A1V6tS64jWDa1ebab2GO0o7TztZdq7tc9rP9Uh6VjrBOmIdBbpbNc5pfOQiTEtmDymkLmQuYN5htmpS9S10eXrZuuW6u7VbdPt0dPRc9VL1JuhV6l3VK+DhbGsWXxWLmsF6yDrOuvDCOMR3BHiEUtH1I24POKt/kh9f32xfon+Pv1r+h8M2AZBBjkGqwwaDO4a4ob2hjGG0w03G54x7B6pO9J7pHBkyciDI38zQo3sjWKNZhltN2o16jU2MQ4xlhlvMD5l3G3CMvE3yTZZa3LMpMuUaeprKjFda3rc9A+2HpvLzmWXs0+ze8yMzELNlGbbzNrMPprbmCeYF5nvM79rQbXgWGRYrLVoseixNLUcbznbstbyNyuKFccqy2q91Vmrt9Y21knWi60brJ/a6NvwbQptam3u2NJt/Wyn2VbZXrUj2nHscuw22V2yR+3d7LPsK+0vOqAO7g4Sh00O7aMIozxHSUdVjbrhSHPkOhY41jred2I5RTgVOTU4PR9tOTpl9KrRZ0d/cXZzznXe4Xx7jM6YsDFFY5rGvHSxdxG6VLpcHUsfGzx23tjGsS9cHVzFrptdb7ox3ca7LXZrcfvs7uEud69z7/Kw9Ejz2Ohxg6PLieYs45zzJHgGeM7zbPZ87+Xule910Osvb0fvHO/d3k/H2YwTj9sx7qGPuY/AZ5tPhy/bN813q2+Hn5mfwK/K74G/hb/If6f/E64dN5u7h/s8wDlAHnA44C3PizeHdyIQCwwJLAlsC9IJSgiqCLoXbB6cGVwb3BPiFjIr5EQoITQ8dFXoDb4xX8iv4feEeYTNCTsdTguPC68IfxBhHyGPaBqPjg8bv2b8nUirSGlkQxSI4ketibobbRM9LfqnGGJMdExlzOPYMbGzY8/GMeOmxO2OexMfEL8i/naCbYIyoSWRkZiaWJP4NikwaXVSx4TRE+ZMuJBsmCxJbkwhpSSm7EzpnRg0cd3EzlS31OLU65NsJs2YdH6y4eTcyUenMKYIphxKI6Qlpe1O+ySIElQJetP56RvTe4Q84XrhM5G/aK2oS+wjXi1+kuGTsTrjaaZP5prMriy/rLKsbglPUiF5kR2avSX7bU5Uzq6cvtyk3H155Ly0vCNSHWmO9PRUk6kzprbLHGTFso5pXtPWTeuRh8t3KhDFJEVjvi780W9V2iq/U94v8C2oLHg3PXH6oRnaM6QzWmfaz1w680lhcOEPs/BZwlkts81mL5h9fw53zra5yNz0uS3zLOYtmtc5P2R+9QLqgpwFvxY5F60uer0waWHTIuNF8xc9/C7ku9pizWJ58Y3F3ou3LMGXSJa0LR27dMPSLyWikl9KnUvLSj8tEy775fsx35d/37c8Y3nbCvcVm1cSV0pXXl/lt6p6tfbqwtUP14xfU7+WvbZk7et1U9adL3Mt27Keul65vqM8orxxg+WGlRs+VWRVXKsMqNy30Wjj0o1vN4k2Xd7sv7lui/GW0i0ftkq23twWsq2+yrqqbDtxe8H2xzsSd5z9gfNDzU7DnaU7P++S7uqojq0+XeNRU7PbaPeKWrRWWdu1J3XPpb2BexvrHOu27WPtK90P9iv3/3Eg7cD1g+EHWw5xDtX9aPXjxsPMwyX1SP3M+p6GrIaOxuTG9iNhR1qavJsO/+T0065ms+bKo3pHVxyjHlt0rO944fHeE7IT3SczTz5smdJy+9SEU1dPx5xuOxN+5tzPwT+fOss9e/ycz7nm817nj/zC+aXhgvuF+la31sO/uv16uM29rf6ix8XGS56XmtrHtR+77Hf55JXAKz9f5V+9cC3yWvv1hOs3b6Te6Lgpuvn0Vu6tF78V/Pbx9vw7hDsld7Xult0zulf1u93v+zrcO47eD7zf+iDuwe2HwofPHikefepc9Jj+uOyJ6ZOapy5Pm7uCuy79MfGPzmeyZx+7i//U/nPjc9vnP/7l/1drz4SezhfyF30vl70yeLXrtevrlt7o3ntv8t58fFvyzuBd9XvO+7Mfkj48+Tj9E+lT+We7z01fwr/c6cvr65MJ5IL+XwEMqLY2GQC83AUAPRkAJtw3Uieq94f9hqj3tP0I/Ces3kP2mzsAdfCfPqYb/t3cAGD/DgCsoT4jFYBoOgDxngAdO3aoDe7l+vedKiPCvcHWqM/peeng35h6T/pN3MPPQKXqCoaf/wVb0ILvhLzdpAAAADhlWElmTU0AKgAAAAgAAYdpAAQAAAABAAAAGgAAAAAAAqACAAQAAAABAAAAZaADAAQAAAABAAAAVAAAAAAq9I++AAA7y0lEQVR4Ae2dCbxkRXm3376zsMNFAVHRvigKLuiACrh2o0Rxh7gEJdrXLaISGaNGTPTr6xIFMTogKorSN4hbRB03RCP21aASg3oR1NGg3SggKMKILMM27/d/qs/b1XP69txZEXHO8/t1napTp6pOde31VlXF09Wcsi3XlhjYEgMjY6DSyyjuI23M96BrYDaZMKsn+nqfBjOfAtmbTlh6q2tWmQY9n4Ss77s3YWCVhJnNJLI6ZZD9LezLZMu1JQY2WQws3GiXioxxcxfMFndBrk70EvjqLpjdPAVmt9VBGaML1s8wY5NgtmAKzBZOgNQ6WP9aXQezW2dA9ifAbGwCBjKUbbm2xMCmi4H1zyjdogYpMkLUDNdOg9lVCbPfToDZr2fA7DfTYPan/wBlnAlQAt8PzLaqg9n4FJjtMgFmd5sEs3tNgdn2CbPtpkD2u6D3E7bl2hIDmycGvJVwbyayGm2yeB76Qv1DB9y/1gH3fxgH9yXngfsuB4H71rPgvqgDUvcB94XfAaldkPnzwX3xE0HvPRfcdxoD9/seAe6PvALcXzgN7u9OuH+jBu7/1wH361vgw1fHYcOvmoOvboPUJsi5wjy53pF+U1+j/I3/bVP7t8W9NWLAvJFwryay2nYYumY74L7UwP3ek+C+4CxwHzOIPs9mUFOVJf8+BO5b7QHuexi4HzoL7v98GLh/vAXu1yWGPmekwWoH91ur4H5bFWRANutIXcfrtha4r+qAwtEA92ub4P6nKrjf0AH3W2rg638V/9+tDVB4ayBnCG1H6pZro2JgoTrCvc5wVFjTa3a2w/jkGTA76clgdlnC7MbHgPocTwHZfmJCDxJm/50IZzZe3cXAbktIXQxmlybMrjwJ1ESbALP9u5D7MtFUnC8gMXiwoAvZ9q11MOt0QWrC7JIZMPv9BKjpeQGY/fFgMFu1BMxuWQ5mqxPqU10C6ou9BswWHQ5mOxwOZrtOgNlunwezPSbBbM8JMJuYBLO7dEHfmbAt16aOgX42iyZW1CzFgw81wX33Ccg1xNjfg/Q3gdS3g9QngNR7gdR0bXq1ci1kd5dMgPuyFqgJVgWV5G3w9b5uaID719vgflwN3J83A+6PnQX3Bx0E7ve4GNzHdwE1IY8E90pC4TwJpN4CMv8OqAbeEaTfBvT8x6Aa8ypw3+7B4L7rPuC+1xS4H7AU3J/aBffXzoL7R9rgfnELfPS1paYZHTdzPLEwW92A0Ln/ogruD1gFOUHaS0D6w0HqdiB1H8j2Ks8HJYQVIPOVkJ+PykBjDdB7F4ASzL1Bahrdyu8v+AOor1IH9/9NqCnTgvwdcbe6Crlv0TdvrRb5e99TAzXhloL7/brgftejQX2qy0Dh+Bzk8Iz6ns1mfqAJxdP+4L79buB+zweDMtIycH/lNCjDd0AFRw186LqtDe7eTuhmyzUYAxYRQ3IhwUQJfFwD5kgI4ybmME9tISWkXUHPPwzqpO8NKmH/APpDfwXq7Kv9tIuy6c7Hgvu2u4D6HAeC7N8TlEGuBiWIWVCnvgu55LysBmqTJ/Rp7d4fHd8TfYzodN9YBfdvtsH9pQYqEI4Fhet80Hc8HfQdz4U5vndda8p/MKH3z4EBd9IwnfTHg9RDQOrVMGBvXf0Je/uaUHw9G1QjTYO6npPg/vSloPirgfuVLch9mtuaoL5SwrdcRQxUvGhyxQTfxXUwe8ElYHZeF9K/MPdPqlH0KNUwZjsvA7NHnAtmtWvAbN8u6HnCbOsJ0HzIJKhL0wWzP8yA2e8SZr/8Fmg4eQmYPf+9YLbfJKiNPwEaHp4EG7puMDA7dwLMTnsNSD8O1kuXen7r5aDh6lRCy7+3gvpe34UhZzfc4EkGZt9J5Ah5qoHZKYnsfnQ6olPWGy3JnZxsc827lGHU9zkE1Hd5FchKahFoeP16MHvguWD2rHeC2REzoL7RNAz07dZ0/a9PVy4yzmqDaoJJWIeSbW8T6sM8G9xbTXD/YxPcowS/pQoaRWqDSrCi5IrRmRitubkJuYlwXQs0WlSD/L7XEh6jUx5X0ce6qAFqu0+Caoo6qKZ4CqjE/TBIfROoj7AXjP7eymUw8Dwl4AF9SjrD+p33APd7XQEDzx9oQvqiKbvtgyEPg1fGIduv3B2y3tJog/Sh3teEvuM+MGAvwlU0fStHgr676GMu+DW477AtuD9uAtzPTCjeOxCRO6AWBeyAyZ361uLrbm2C+4ktGIjoj5oY0EfEF+qC34H7Py2BcE19gVavKZdNNtFdx8Fva4P3r6sd3D9TA/fH1EEJYmcYDv/YFTBsnj5LsXLPi0BNsiPAfccDYMB+Gh+XPrUh5c/jQfrngfvedXB/Vxvc/2UKBt6PePy1CRU0R4P7Z1vgfvg4qAn6EsjvVe4BWR/hrbwF5M7ZoEGG80DzUS+EYftj7wZlrFIGXLgnyJ1dIIc7Cp4ooPpN3HZvPin9Kx3PV9EEzgZ/2XdKEr3rBgf3f52EHLGVL0DWxx8T6vb3B/eZFhSOSYkaI5tsnrufO7i/bhLc734+qG9zECjcW4PU/UFqjMZFZ7zoW0Xf5wWz4P6hKri/YBzU1j8f9P7LQOofQWq65N8zwP3hS8H9izVQW78B7u9sQbbfEzFQQn02uO92Mrj/pgPu3SZoIncSVOI/DQbeX2JC+oeB3PkWaPBhBbif0AH3t9VAE7UToD7g0TDgzhkmpH8rZPfiu7ZZDapploD759owx//bcPB+hmk63Gkuiy+5vgmaqBuHHJGVb0DWRwSGuuOvwP2nTQjXBmass9EmvftYE9z3XwYK34Mg/9Fjb4DR4X7cOChDtME9Ssyr2uB+VB1Uoq+CAXfub0L6u0E2f94kuK+ogvevVQ7ub61Bth/xV/kHUEY5G9wvqUL/dY+JydOqoMGPh8OAO5Hxi/As/CC4P2QK3L9aA0kqVEE1VgPcX2ygAmAvGHAvBUz6n4Iy4I8gP7/LOLi/YRbcL094vqoOd7pLUdW7oi/xpgnIEVP5IWR9/MGhbncmuH+3CeGaSpxE1q/vXb/vUfRFoml4agfcJ2ZA4doGpD4SpD4d9Ae/FnK4d14J+oNXgvuFCfV5ElJbIJGYJqgv827I79u9YUBfJKgnLgX3n3dABUQHvH/dVIVcske8hVp5BCijLAdllDb0X+/fxLDu8Q5qCr4LBsLzDRP67mJYfuGBoJqgC5pXakLfOf9tE9xbHXB/xLEw4F7xfWn6eVrm20J+vt0h4H7EEtDoWSK7f2e7s/ig6Ewvc8gRYsthQB8RWKhbfQDcT21DuJYTXjZZx7vopBd9nMggzSWgTvkqUILYGxSuD4D0dwUl8B9CDu+Ss8H9v9qgeZYmKCO3QWoD3L9chTyxZyeD3Nkd1LR6GmR3nzkFynAd8HxRnsqduGK4/a1tyO9HRulN0SujXARqciXi7WH12ja4v6MFapJdDPr+Z4DcfwNInQHFxzbg/tzl4H5NFeRuEc4b26AWQQ3UhF0CGszZDeTOcSB33grD4V/0W9C80wS4X5aQ+8UV8eydhKcGWTOe/uWoVg7q8gYMR0j/jy1llBg9efESyK5tbB8lZJ5Oa4HmWfaBnEEqO4LCmSZCcnh3eDxofqQL7r9sQ864NzVA+g64zzZAnd99ILszNgXSfwjk73Hg/oRpcP9xFXJGS8lA7pUTwrwZxU3kjFJueunRGlfUgDGq+EYD923eDTn85f9r271ATc0aKNwJqR1wvznh/oeE+382QaNwR8Ec7hYZcuwEUEa6EtyfvBTcf1sFH74iwww/uUObmLcS/UBeUAP3PQ0GIiiGIUsZJf6Q6EReXoO+c/PflCOu6BSe2gQ1Mb4IA+FI8w1KuK+HbH73W0Gjdg3QH18FNYUSnq92Gq/p1yxPWQ5y7xrI7sV3hbrXCnD/fhuyc/Pd3dQCNb0aMOx+ZSdQRrkK1PRKzOeqEngTNAyfcJ+sg2q+L8KAP1UTWX+/48C93YFhf2iA3trSIEQb3H/YBve/nQbF0xtA6i4gdx8C8veeoAw7BRq1WwKqIdvg/eu2Nvhf3JWlh4sEFJ2zw6chR7AthGH92K6gJsAKyDPm/ZgoEn65pI3n5Yg7qwGadzgfsn+V94H0jwP9MTeC+iqngErAGigB1Qqp2ZqDp1/UIkNGEzP6Itu/HbI/kTFC3WkFSNYrIXfiiu+Kplao4W9h76YOuL89MexP5T/B/W6PAY16VUEvF+H1cLdQI+P31dpqoQzWBPfHz0D2Z8GBIP2bQeonwP1ZM+D+6yrIv7jCv/i+Il38sgPuL+qC3Pk+ZH96M8nSF6OM250Bsj8Dmo9p9ebDwps0Rtbo6+7wN5VYV9Fr02omegrM3pcwW1qBXrKZ8zf9AXrytoT9zWFg9pWdQNKw02BmUwmJuyas79+MC7MfT4LZ3z4PzH61D+i9JAIi9WMJq7RAM8YvA7O/ewKYHfZQMLuhDrIfV+FfrKC8pg5m73o/SOr4KpDleyTMHpUwOzNhDz4MzF55DJjt2AVJAU+CZvITen8moZve1Wu6acY/YfalE8Hsc0tAdh6RsMq2IGnhr4KiKRXJWrg2Cfo/JkH2Y8FcxGOhxvOxLphduB+YnfCPoHj6GkjK+vsgd0rXq5eB2cOvAT2cTvTTQXzX1l2QVPQUmB13MJhdkSg5ijYNskiq+WFg9vIzQN+XEphWwk7AHO/dUY2ixA1ZqMja322DaorjYKDkSB8yoD/dhEr4c0Cd4S5o4q8B4ZrUKCGbqW7xmJC8ogpq2y6D7O7Yk0D6JCIjNYZ/C/8rq0HDt/tBfq8Xz3Pow51y+N9pQvbvDlLTuKnU94O+65WgCcUHwYC7hUTCSP/K/pT1MR8T/t7PxID7ZftlfRKFkf2YTymeV04BhfcLMOBeyljSHwtSU4Ew8Lzs/gj9WB0UL8tgjvej5XGhCdmbAffqDKjFkRhIF38htxZVewxrRifvxhpoNKMOAxGSSl7pdwSpRRu4PGN8UBfcf1aFHBvhfpgcMwXZ/co3QfoHQDbvyaJJH/MY5T/yBSYG7Jefr6v+lSbkTiES0m9SrOv789nbyoTcj0GIVONJn0ryTRD+Uf4X8yyItCah1iNMbIB/9zQx8N6rTEhfpANcXcPdYrAilhPsexRoMKQFkQqkRl85CtSBR3eEW4u2br/NGG3TInQfbYL7Xa4ClRDvAnXmSvMU6f+xHIGV40ETmDMw8KmlNvy7mpDf620uIfd3AKnHQn5e9med9amNNIc7B5hQCfwtmOP5qIS3oebleZ+QHGCB5h63g/9phZv8+VuQGhl3Q79nxHtjbZD7HwepDwVJBuwP7i+fAfffN0CDLo3eMo9+ehxIMneEW7VeQB/STaTP5iekcv9YBwkHvwbM2oeBLKSqVWohpaq73rXIQI34hN13HMy+9nkwu28dJPw6CVoRWAezI08Es3NmQe+XroVHgdrsN4IeLk4ooAmz+yTMjk5Yb9hafYhvgtlN10LJ0Tm0C68D+fMBkIVvJYxyVOhBYo43C6PotBTSvv5O0Gv7gtQrYOD16OM9xcAW3AB6nhKY1JAeHnhljdv4/lgyGStLUwaQzVQzqo/yHpD+Dwl1MhJm70hYr4ZTdNZB0tgTICnqHUDm7wK9f3Mid84+aGD+ZZDx9qC+2SEg+3+fsN6EpfRp+YXZXZeB2XuPAUktd0HSzl2QfxNg1u/T6vbPefUzSj9g0VmcKTqnqUlg9skpMHv1H0G7rSwDBf3RiSw2Hl+zl4HZxQl7/RSYvbkG6rzWQRGcendmF9TB7JALQLuvJMze+l5QOp0AJfhp0B9SB73fBbPI6LF0NzL4e14EyoDTIHula/FnwewfvwTKsE2Q+P00aDnANCihdaH08hzaiMfYryyWEXx8TzD7yAwMvHiNge38E1A6uifk7/cJGLA/4jb8jc53JLCxGci74rx5ZzBbMQ6Kx91Bju6WsO2eD2ZvvBvo/0hoGcQEyF692LdNt1wxaHHLBChfT4LZf14AZu9fAjZ8pRWxZo85F8ymvwr9fD1s/89tEjXKKDWqvZvaoPHxpZCr0l74pX8vSE2X1FJbdodVoBnwJoSrGs6t9jZtCPdjgvGEKmR7ffF8p5ej9zq9ibJQ+ysYOz0RknOroM0vzoAcrpggqzwH3HujWu5JkqMlh4sr5hMYfF1dG/Yv/B1Si/DFcHiIBr2lAzkcEU+9CiGLsHQaoKZIuyeVO+R+6bvLz/vxUIQ7Bmtic4uXz4LC8V3I4Rn7KEjaeBwkjDkDRWRI6btb7a0UDX/DPOZ1Ynj+oja418ch+9NbHyP9z0GyZq8D93/vgPtNNfA73NXvo5QzSkRwzARHyL/XAa0RXw45AqwGA/oiwyzYDrL5fjMgkYk2hKt5/iNm5CPjZBvrdndtC9zfPAvZX7seNEp2GkhE4wHgfnILNMHWAfnRTijnJDwSvJ5s0BUJdJQISz+jrNhNaD6kBhvk1Tq99M0maBnANOT4iYnPxZ8BPT8UtPa+Cuvk9BqW4v/7TAeUAXeDAf8KyYqxfwYVWKtAMmnabOr/ZL9/xf/QN/jz3Iz1SrbhX2Y3mN+IJnI0TQ+aALPGFKhNeV/Q+6cmdFNcxTzBbU8AubMfmP2oDmb/eiKoCTcF6rNMgaryaZC702BDVb1M1npdbmD21SnIViu/BzWxXwxqyt0IuWmRRjWxHk2LidR4MYumaHZq/e66a/b9Rr4cEy7ran+kQ2t/cJCB2YGzkO16muKXvuizXHkQmH1hGrK9dY2PxXWw5Bv+HfkLGHAnCa/qf94btFHijmB2VheUHrq9HUb7TcmBV/8st+WapKyPEjaq2sjPV1dBM8HjkEuKofH1g03oeUp4Un8A2f7bmhCuqorvgA9f85Qs0VT6QhWy+5VFoNGzkojKq8dBM8ZtGPZuU5nMJ+vVr1EKocj5ZL02OFxVh/4Vsly7fQNyfNm/g/QPB8m2pW118grTcCCahqEfpYZQ65eqIAmEpZD9i+UQC04A9wNXgGTFGiBXW4nUoL1tlCe3g/nIGqWfa4sSLvb2DfOdu6Ca4ZmgGdhp0NNlCascANK3Exad7d5CI5kXRdtJN4FKkmkwi05pv0QpBhP67+vVdMVgQ6G9YQLM/mdnKAylLLoG1OnfGTRhvA+oJjkGtHZ8ArL9O+1dqWZ8zAxof7C0pHHgq19rYHZ+wn51BJh9ewayvdXTkPVDd8X/FoOAD5kEsydNQ7a9+mrQYMlZoLGfU8Ds612QvcmExV7T+c3b+a5cg5T1kaNHZdqYQIxOeC/4KjFi5VwyyCVI//nvTajPsDtIZmsZ5K1R+/7FvMs8NcolDcjbC4U/Cx4G2f8nLIO8krDvT/RN+gab5uYOU6MUn3NzB6QpvveNS0HzG0sgx1PE39Yng+bD6jAQJ6UaauDJGreRnkLm7VNVkPDkM2DAv5RBlR7eBNotpg5ZqjkGDdZw/HbUzF+j9GJs5G/0KZ7TBbNXzYCsx/h5+c0Y99/VwG79CajCWQpmr78SNNrcBb1c1BwxTRDOxa74t06BZMUSZv83AbJVFGW3/QDiLbPH/QgkS1UHmUdJG32SbPXOeVfEZwyrP+mhoM3OvwHDn7zqaDC7aArMrpkG2StaGv34K78aNX5RIyyYBrOHToLZ3vvDwEupyafptyVg9oujQNN1M6CWRhfUMljH4fIBlzfJ7UZnlBCiSwvgFKSjayDZwrNhIIxF5748Ybf6rpDt/WgFmL19TzD7eReU7id6xzr0+jqK0GnQvEoXzL75FsjuWCln7fgUMDtgBjQ/0u0J+UXVHu4OuHCnvF00BUp4k6AtZxOar90e8iePjUPWX3oeaP5lCrK51yHr+3d1Awt/4jiPe9VB/8Ms5AxQ+T4oI+wHmse6CMy+24W+qxaDTNnk9rnbZBklIiRtGKmwv3tvkFRq2mxBEXI0KMGfBvN/3Nf3B/WBXgSKuC7ovaIkixIqJrju3QRN2J8B2f1KFdQW3xEkJDwFel60oaNkzW/cye+iJig+c/sZMKufDYq/p4H6dl+GHBdXXgxmP+1CNo//PZsUdzOpLdCP53i+zTSoj7gTaC/li0Hp4jOgdJJWaup4kBvA7Ps7Q7w9UGBmo9vnLtqQo9T5+ijlZmJ5NORrNdDxDWfBQJt0lHBj+mzZ+x5ovuMYcH9jHbQCrw0DvhZt5ZUNcH9vDfTeGGT/jqxDXnlX3kFywMVNenuH6aMUo0f9/zP0Rfx9vgmaAFwI6iucDzn+Fl8P2qVnHDY+in7WBPeHdSH7Y8eAZO9OAfeDjgP3S5uw8f5uqAsbX6OU8nPICoXxE2fA7Jjng0qqn4Ke/iKRTwaKF0L9RwO75UQwe8+1oGUvl0De4TGs7zgFElmaAdl/LMj574PZAxqgHRB7XSOrTIFKsBmwO/9V9BWiRraiaRR9wPvVQf/PS0F9x4dDjpabtwONSs3Cuov0ZBfWvEsyoDLaZwnof3ggSC3WG419HdQn2gfU5JuENd24PXVjm8qzWyfA7PoZGHb1n44Bs+fdAwaeX2egXngiPyiGJ8Pgph+C2QeeAzp+4kSQfwlF8AQoY9RBW8JOg+bPvgK5ExmyYDEIEU0w+2u5yoMXxSBG2kNDcbD7OGjCLyGDVLPnyLlmJZhdNwPZfH3vtpoCs/sfA5KZPAn0Py4E9VW2BjXBLgYt5JuA9fVlE9of1eQK835VPU+ddWkV3P+tA9pHqgPDL/2mAe7PNshV7tgOkPWWRscG9OmbpS/WVSz8V9B+We3e7iblrT8j/De0QFu7NmA4PJvb5A7T9JrnQ+Mgo0MNFM9HgpZVXAj5fzhwa9AS4sQ8jq7lcciExXDx3R4Mmhh+GEj9NqjJ/nBwf9MUrMXBzfxok9Uol3bB7E3XgllarlLRZtsTkHP2HtOgmiHJsWvP6OWgEuxPoBIlbRkq+6PE2dPGbKr6XwBqir0cJNX8BVDJk5A7CXVOZyBLAfebHnbHuPrLBgoZGg9p6Ns5eFHDTkyBPE87Ryoez4ccmJX7gEr6Ccjm63sXo5hFhWbbvA70t/8ApD4OtLR7F9CBTYeBzGd6olXr69/G2t/4jDKdGi/2u4Q+5KFg1vonUBOpAgPBLOxHX6G5E5g9dQL0ftrdQn/Q9TDwXhKpkP6uCfNrQX2YX4DZGduDMurBoLXckyAZs+ne+L0X4vwW/8yA0+k2miRl843UVyZA31NkXCtdvW2QZJg2sFN4J3qnHJesbXZtiOPfvQEK76NB3qbNvbP3N14EOkFsGrL5et9FOpjZVWgvglNg2JXVe4BOLlsKyjhdGLa3uU3UGty4KxZgXTMF2a2bPgdamHMsaJh4CrQJxBTkkuFe06DNENqgeZGdQelmO1DCeTioBkni+HI/+i5pZaL0xXXzS8Hss3cFubMM1EeZAk1wTcGA8GV9TJjGRRMWIhmxjiX6OlGxxSYOemPtV5ERo8S8uQ7qHL8Ihl/1+4PMC+nTG6dBwpvFe5t9gq0Ib2Tknbqg/+c3IPU0yOG+cQrMrp2AbH7TJGT9yLuSfzFcPH4lDLxVTMxVHgD6Px8DyiipKS3Ro0kYsL+Zbzc6o0RT4U8zkEO74CTQh70atAvHOKgJlDA7dAr0R0z2dhlJezXo9fd/Hsz+eQIkvXo+6EHsxvJZg5HXzZ8CSQ8/CvSHfhfMPjQNmlibAr1e/GHRmb9pBvqbr9jJH4Ic3gU/B723KqGbEdcFBhajSVaMNl16Lsg8hnvi9WIlZBJJW6SVfo8ErTDcE2RpNhG2N72a1oXI2SI+rkyX9IcnbPVXIHt7TQc0sXwBaEb/YFABNA7Z3si7SwwsZtpveR5oEPQhoLeK81uiQBy7AVTQnAyK/jqMdH3zPYhO7yh1vs587JP13gbkTt+CrUD61CbL5vc4DPKu6DHvUpYajs2u/24a8vu9mJA+NklIBgPPY8FYsZvKgiZoN/ezwf3cBszR8yvmE65qgfvxHVBnchbk/t+Axvc5zXsnqUeC1ApIXQgDanE249hdQZ3TF4LciU0rItyfNiHzp4HsXQRyJ10D7oc/m0mNXW0qB4PCE5tRxO41MbgSu+e/vSIUvuL7+vEwX/jiu4r94HoZRv79J2R/Y0/mrS4A7aF8LGjnzxrM8f9tZqONrlGi5OwPJxZ52n8P0qTdWgpDKZf/F6hEug5UIh0JZgfXQTVM0ZfoLSwya9Yhn0J87iTIoaLtHE0GXwQyjwUppxlYHFT1vfeDaradQUvGp8HsyQm1fLq903/vUgft49UFzeRPgPYBOwEke/Q2sLym/X8M1LZLZA8jYLG2P50zI3tfTpg9OKFjjBP993wPkL107orUcsTKaHNc/ieQy/+W0CYHCbO3JHTUWaJfI/ZFV2IdUnzvfIELe0Wb1ncBvVTssWD7JaxXMGkmfj9QNJwFiqZPwnyebIbno2qSMF/nGqX9XqESIV0qaV4NWR/mZfUuDwf3s6ogadEaqHhoJTx25zi/BjoFdxkMuJvE+KV/IQyYF+Ho+1fsdl85BnR46afA/cM10ObVTZC/hVRt+CuTdJ3fAdVMdViLP2V/y/r3mND7xY6NvRnQjXCv7P6m0ifZPIUrTgl4tYnbIZzFjpaV/UFSzctApzCvgA1fcVn8jRusbHyNUowWxeYr6X/iJ21P09fZ2IVg9pDvgCqaI0A1yKdAo2Rbg9mSDpjdfRL0vN4TunvYBGgHyy5oXckSUOd9BmTvdLDRVzFxtuAdoJn9bcHsdTeB5jtfBJIgqIJWQNZB7k70NnfoiVqYfdBBM//joOHoKVDJl0Qu5H0h7FY5G/R+Qiv4loFZ9ygYCGZqcmlG/CSQkOLpMHAm5XkGm+9KTVj1GQ6CvBPkL/4BZP4K0HecBFqRWOxS86CrQJtizIJK/FWwDsEsOqkx2hcLO3/6btBM/FNB/p0HUtOpq6rxtwbF01RPqHMdfNq0VqLmGKVGyT4qK8Z6lNMbkEucyuWQ9b3OvfvZTXCPtfhxtuP1bdDZjVXw4auoYeJBnBdygoNkk2qQ/at8DLLe0ijKgP63Jgb0KVpzX+acNsjhea44czI24451F7c0QSsDG+A+NQnD/lW2A20uMQ0qMRuQ12HEZuObTa31avAbO+D+niYonGnbo7yPWy/VKZyz4P7tJnj/WufwFf5F/FxWBfdHnwcD8ZO2f5HM3kvA/YkTkPcB63tcuin3dUuPN1g7cnOJyDjzZRRvJvzLbRj40CLh9dq82TyWoM4b4lELtQrziJDrW+D+wQboj0wHrmf/Fr8Zsj7+8JFqcVz23seB3K1BntmP81Rid5b5viM2y/i3KswRjlSkaonsQtCCshrM5+qmfx671zeXgQYVFoCOc1gKOdz3/ga4/6gFGx+OizugzSUOhexP/D8LXgf52O/rHQauoqnsocajWPBXNo/n66mO9QK0Eb9F0+tudVDVvBVk9xacDFn/uxlQVT0B2XzorhiuHDIvJqrCfKs6WO9oRRme9low2+sg0HzE20AP0h6/8dYcahotU1OjBhqudFDT7ETQgrS3gGScJkD2JEpZmZnDnZLRrdOgvurBUHqItpg/8VlQvHSLTRXmsLo5jW6bBo2FzICaPD8B+XhUQje9a9uLQU3DGQjTDVCL//fKCVC8roBhdxb8ELTUfCXkffT6Nov0EPN4n5sC/e9ToGHlyd7x7H37G3iz8Rml8Hi3Lig9vgZyaCqfhKzvXALzT0fkN0p3xbxESP8uqIPSWzED/9QZ0KDUO8Hs8V2QG6mpJTWu7dNxo6HrD6t52kVaCeUZIKHLJWD2HweAhDr3A63460J+fdRd7CazXQ3msBU7NxZ9hTls3C5Gq+ugvtRSkJfp1GPFw7shB2Gns0EbGM5ANl/fuxjM+/UkaL5tBagASienqc93f1BfdA8wu9ckZF9iNDMKll/WQaOTx4PW+E+BCu4J0HdM9Pqa2YX1vIsm1ih13qZXw8Gv7ICOrd4achWaljeoDd4Llvvf1MH9dw1Yz/pv0HpUraPWbhdNtJ+2QBuxdUFNileC1LSiTuojQeGLTcHLG/mlgOt5sWFcHKSTjom3fC7LDU1QAIumaLkpcEUT3F+4Ety3PwVyvOz+GMinAcul2/X6fQd0XPhRkMNV2Rey/omHgfvKKmx4EOOEr7e2QPGxNej/OB3U5EsTU9o/rph3i9HJ8DHej77Rpx3UhD0X3J8yDvmgpXivv19b32Ddbja6jxJSoH9qgE7TXQk5YiuPhazf/jjQBnhFAu4Hs9RZ75uXb6LvUtj/QwskzdoGWS4yUEyExuuREF4xDfpjXg0axj4HFL7jQaq28Usb+YU+NrN+vQn9kZeB7MWxELMLhPtrZiEvDAt/b62BNvhrQZi6L++A+5KloD94CpRRqpDtbfa7og1/gYOO+TgXFC9fhvy/RUH3/KXgvq59tFHhj5PCnrMS5E9MIH/ShDJKWkGmjJtKMPdvtSG7Fhkkjn2faoPC/xTQ6clLIB/gFG9GhVAuyOL5KHWjM0p0qmNLzTifPSK2X1In2awc8dMOSkDN3hFrUUKMCmjfvCixI+F1a+D+zJWgQ01bkBNmzPyXI+b9TdARfMdBDpfF+R7PMCHzJMoh9UCQmoQylZBuAY0KfQjy+weuAvdzqqDlBhpqYLAhrtgaNvRXtiAvF7i8CfH0dlCLguWzbdAKx5eCdnbcB/J3LW6C+7/MwsaH62cNUEFhkP3htBrOqxn7Prg/ahKGD1GNUdM49j2d+iF3FoyDRkF3Be14uQJ0VmcNcrj7GSYbrfVuozNK2fXv1UARfTMMREA0YQo1jkbrrxdp3ijKro3Wx3DmyhooQpeD++5bg/vpNdBWqS3I7kTGDJOvOmhY+CiYI7xXm5jDvPQ9Y/8K2d74saCEVQfVNDUIX1UiJ7I+7kaZx/PNpb6+CxqO/Qloou90yN/TW9jlfloDcijWN7xRE33SwX2Pt4MS+AWgGruYaNz6DMhN1b6PpVGsK6ugJv8s5PBG03rrk0DuTINGL6vQd23k/5Bt9O42OqNERMWM+q9roJnULuSA92uYIoGNd0F7zSaUcJqgQFUTvdCt5Ted/qDnsUCsuRyyf1udCTodOJ1noPH3JmQH4w8Lk8ua4P7/loNkvCYgu7fg0aA/stgzt3e0nJ6HTFQp45S/90GHgvsZCc0jNSF81+bUTZC+kcgPNvFdv4Yt3L26BSrZZyF/b+U+kPX7XQHu57chBypOTssmpbvosxXGf6qB+5FTkN2vvAekXwFqis7C8AldsddB1CgxL3fvkyG7V47/Xa4D9/clchjL6SA/WfNuozOKFxERbfGbW6CmRGIg4HFSVzoHJJuf0oYcqDjWOpvMfRdNr9hK9ZwOZHcjohZ/DtwPWwk66akBA26W/sib2+D+8Sq477Mcsru9syCVYbaCbB7+9dW04Eb2ngvZXu90BWXgWdCJZDUYCM9mvo3d4iP+vlIDHRSVhl9zOPvfkW7UtJ0EFUw1GAjkPBk7tuKNeI0m0D4rYNi/yqGgeD8MFD9FEy18jHDHRPVxDVDf5KUw7F7/O4pNK57cBfVpiwI93I0uROjL6sZnlHCxVCWGlO49LwUlmM+B2p6LIX/QYydBJWqrd8z0epeonTSO4b9uQe4cRwQtuC9k/55ch+E271DJWGSgH7XB/SUzkN0J91MTe8kc5kUCs8tA338qZHuVWXB/4KdAu8ckcp8torXct+qbb+BNTIDG62ksQeFftB/k8MX3bVsH7b4yC/FW7gNmk9Jd8b+EaRRoZzRA/hkM+7fV40FLxZeDat4OSG2B968ra+D+jJUw7I4l4cth890+Au7RR+07WEq/ffPiZtNllJLLV3VA55+PQw5wHAHXm7Bz3/aJ4B7HEZSc8f7w9DyjYn/sgPvrl0H2b/HhMKA/cbFw/2oThnzzUQnz6g64v24pKNxfhuzu2Mch6yOhDanvMjFsb8cbwP2ICcjnu/dDWGTcfhO1lBD79kbdlOxf6ZD7dkPhTAY6X2YluH+hBtnx/jEZ2WjNu+L/CuHSSx1Uk07DwPe/yIT0SVpZo1XXgfuHEnqhCPdNDcheXNIG957U+YB7Rbj735NyZH4+9mRw/7sZkIhRB7K7o+42W0YJDz/RAgX0XjAQ4LQRnkraJ4IOKFoO8ZbUyOGlP3jAxhq3cSDRl1qQ/YkIG3snZPNXLgX3JF2+hktr18Sw5BcdlNAMVEKeDVIL2aQk5H9a9i/C0VeTOLuevwakFn2dykdB8wevA/c3LAellxbksMUewtEUyU/mvosEG8Pnn26DBj8OgYFwxinFxWG2hywFyeC1IbsdfdNsMvddZKgvNUGnRr8dsn9jrwd15j8GGlTpgvtVbchu9vtWxShdhOfkNqjpeAhkd/vxnCaWZX4OKL1tAxoN64JEcTqQ/Rl1t9kzSqcGGg+fhoEPKRbqLH4ZqCQ5BbRJdwMGghsZZsBobbcX10Abp6Xt8rN/vX2ipP8ncL/XGeD+8w6szcU1n4XQ421tcL+6DUrQS0Di+9+A7G//D0tH9c1hHmL3xXzNgnuA5hHuB9n+fbrg/rGERtESvt5XnPb87KWQ3Y9wbnVX0P+xC7ifVIX19qb/wiVNUOd9FrJ/lW+AhnF/Bxo8eQi4n9IENbUSciYKykZqlOcCtEgXMQjz6Csgux/fM0rd9h3g3mqC/JnnsihhRqrrmVBH+Xf0OOhDngP5g8ZeDFn/OAP3a9swyrXR5jEBdVwbsrv2BtAf8xJQCXZC7zyO42ugNne7l/B9fa+WQ//6Zht0zsdKUA2zAwyE4zEmpC+EL0f9kUxvMsE59hQYeD+9oOHQVaAmURs0U57oByPfRPiK/zH6KJ910Pk206AMPgHypzi/5n5ngzq9Rd8vO7hudzGK97EmKON/AuR+2qdK6sHFuTnFis/96qATxzqwFj+K74l5t1VNcI9O/bZjMBxfvcMo9b9/ATRfNA7ur+rCHDuQloJQCX3vD9t0v2k+cVqyO5OgPWRnQLJSPwet4zgKhv3b+nyQkOPJoLNUW6C17zMgma6J3i4l3gW9P5Gw2KGyMgFmP7kEzE7eBrQ5wc9AMkSnQpb9uf8OoO2ODoS8Rh7JIJc7sebdZhK2zySYPXIG5N40yL1i3UwIS14+CWYnVkCHxe4BZr95O1j/WrAQtHLvWSDjXybyJhphs7QyMIwXngBmL34EmD2rBjpRawbMdqpD2B4O5/V1MPviBGjPgAtAQoWzYPbMBij+Etr+aRL03RO9TdNj7bt1E2aFkOzKadCeB68AyV6tAMleJSSsuC9IlutuoE3ZTwUdOjsNa1l3UvgTQrXxv180A1rqvycoGrtgfRk+OzFhYx8Chf/TYPaw3UGyfNeAFqrWQe+Vr8gom0stl9SvGQfl7ANAOT8dvz1HCZACuvHmYw8EuRMz7uFumspdf/erddC6jYRKwKJpEfFXPscjOt/ntEAl+HJQCXsqZP9jjbgVK/x6/1N+PqR/pQk9r0K2FzXD0XXIEgLXNiBCqXmrDvjQFX29r7XA/WUzoKbzKtD/9knI/g2FK+K3rN7PxPB7jzoW1MJqw0Bwosk1YJRuw7w0rH9DAzSxeBgofhdB7jv2w5m26s3hGL8K5jiXp+S+lcOxqfXlCZ1rq+B+6DLIw8ULHwr6gHQWmjpd7wPpmyD1BJD6bhjQF00qFtimJbZphlHPy39UzOOkcw70PJ1VKH92A+mfB1LfCFLjiLZikwr7Nci85O6+06C2fA204KqYh4l4LBcUsZn4Fzvg/rRJGHZ3XZcI93Z/VwJOC0iG3dnuHiCh0MNA4WyC+jgdiFDOr17dBPfvtMH9nQmFfwrUlNkDhv0vx1fo9zgX3L/SBmXcNgxk4MgQXrrCPNTicfQdT++ARiU/B5IwOBYGwhVLm4v/cfGjQcPFDdD/VwVJdLTB3dsJ3+wZRV71rtKHfdtBoi6vBP3RT4CBDyolyIjgITVVxevwXhL3lb3UVJMau4u8wsQ6vB8z8IXQXjkcO70UVKJNgHYLScTHKwHUIOvj7tcdcH9XA7TwbCEMhOfxJlSgFLJlZX+H9B8xofeT+P6AO8miJuZ+COpDTYIyTgu0YKwNPnwVCaX8IDrbl9VA6SldEtlZDu4HjIP7jpMwHI7XHwYDZ0NWHbzfVy57OI8+5ltiZer2h4LS1e9g2P+It0WHg3tIdlzXBM3rJeTp7Z5Ryh9ajGK8eRL0Ic8CVZWfgdEftmAMZO/rMGAvtY0H9EXCiAgpq5U/gOz/Pxh4r2jKjB0PqnHKS4p3NjFgf4Q/ey8FZYCEBidKTZ8Y3o1oiQnX2Ta4Hz0FKqmfCNm/WPK8aCuQeVpzLzVq3nJ4Yh5hKxPZnYiP7c8HHel3ELj/41LQtk41UAZvQYRSalHghQRGzLyHjRvaoGMa2pAlIc6ogvsJNXD/VQu8f/WHm0sFat/CPDchw/edKkg6/BDQ96Z9y4a/O75/0Y6QhT1DxOamKsjTduJ2rFFKHxri+SFu3d8cuvxHl/S9zrxmileC+4U1cP9uwv17HcjqeU2QPqEZ38NAJfQbQBnhaFBEFk2rhbuD+/23Bq03aUCeAPxeC+ReE6QW+vNq4P4/TXD/fg0kHt4CCRPWIOvLUsR94c2iAAnhve83QcOrS0FNiaUw+o+PBDCkljPKYSZU4KRL8XAuqG3/ItAo2KWgCb2l4P7uNrj/ogoavm2Ae7lpGd8RIiZeXFGj3twAvVcD934N0nTwyIi6W68rarivN0AZ5bmg7/swjI6vRc8A92YXVMO1e6dERzhTNmnr/fUKzaa0XCo5Qlz+/nUY+LDoU6T9sbL5LgvB/TNtGP7DRgX1xx2QLNEqyO5ZIYNWOROUYPYG9xcsB21n1IFRro42jwh/WwM0PP0RcH9RHZTwmjAQ/iJe+hOJRYkWQqBf64A2W1gJqnE+DAPfUSpY7FjQ8x1gDnuxfOBJJlSAPBWUcW6DbL9yJGi+48GgNewT4P6BJmhTjCZoArfRW5cUwou+sVcpnYxybmUT3F/RBWWQ54HU/4X8HeUCZKsXgAqyFqgAaPaEVRGYuVX6yLim2z/rFSVrdOa+VgX3uy+E/IFjxc6C/Q9NG7O577IXeG/XI30Jwvo3NvMnRUnWn5kuHqU9FGRvmysg+2NJajHr0/k5N2sXlQ5kdz3a1EVCHniyxm3MIMfxFP3wFwl6zytA+4tVYUCKOFyJhBITboV5DBqc0QZ11sdBNcHJkMPf969lQhkhjtdIw6WyFxmoVBD13yvCOZ9+/FJwf+4MKAPVQKJJDVBTqwlaCVuIzoTUd2zW4et5xf/cbYAWaHVAfaJHwcD3F8KQ/fB/0YSeF4NAd78KtKtMYiAQUcMVRn++jFJOYKWAfaoB7uPHwcCHp7XcKvFWgczTQgkl+P3B/R1VGNjQrvjQaANHxokmwjOXwoD7McpVSiB7HA3uM20oHF0HZWRGOctE9neHB4NWOCbW4nA53gqrN1QhFxhP7YJEVJZD9sf+AxR/TwKZvwykps01BuyVvr+f0MI8hA5DDfMR6n1XgoQYWQ+nVBeiOe9rgFoGVdBwdkJN6Rq4n9cB93YV3D/dAjW9p0GDEktB4Y4VqeF/OpVa5pFRkqiGCorjINfsz10G7pfXwPNVKpgU5D/TVQqItxL9Nmu0cT/aAH3YDAz/kWOnQzZffAi4v7wOWu9ShfyN0emLTuhsA7RdzmGQ3eltDi192gUhm8cw64VtyO6OuhuZUYo/dNG2INmuq0AZpSghR7lXNo/lDWXz2PcsVi6+YBYk5LgU8vekYCgVDKnp+PE5zItwl6Vzx/YC9aGeD2ryPA7W8n64U1K3WQEqIM8FyXBdBHm4dyicxfsL/hlUAPwtyN9/AakhCXC2CT1/Nsj9U8D9PzqgQYtEORazXlF0B7uiqVGUnNFWPLUKKiEPhfwHhDToqAi8z2Hg3mqA2qCdnth2+atjlOceF4HcL5p2vR0UFcH7QfY3SrIfNCC7Fp3cMJkvo1hR8u16MmgCswrxttSIj8IoRHvOqoGaMg0oHq6D8tM2aL+yhCZAp0AJcXvI39ePz7RdkYZZ9wLFw+dhDntFgu2/F/q0J7PeOwCkXgtSXwJyJ517sx7uFe5W7g5y57Uw8P7TTQzoIxwlNTbUu7oBAxFXiu94csfLKBGyaIoVNc2qBmiP4hZorftyyBGy6GiQfjuQuhPk53c9A9yfPwPu/92E8Cyrp9Ygv2fngv6Qq0Dmr4X8fP9Dwf0nTcjuhNRsLJQa1UepbAuaP7kOlFFqoBKuAZr4aoBGYxLaxKIOqoGWgoQ/zwOt3GuDJhIb4P3rhhqogKj1NrnoPyhuOlVw/3oVNDy8HDTqtxzyd6Z0ptQS6qIngWqQC0EZ6Vug52mT7Wwv7M+rrmMTbl536ib0fz0CNCjzfsjhecA4uH+tDUUkoESLZsBo8Faffge72g7uzYRHiRpNpfigH9VAxwF0IUdEPyKXmZB5UeXGcQ29U2e1VnsFaL5iKWhYtwPyt7hCarbvXrqRe8W8S+VVkP3d/wrQJgbFPEi4M1+N0hPhUka5CHJGifdDkuHtTZB/vwG1tUsL4Hb4BLjvdxQML6EN90KNTnQMpoR51Fg/c9DS5SZolG4K3O+5CvJ3D8VPxNOfS72LCYWv2FR8bH9wf/gMKIN0eqOG0QQvixxFPJRVKxvcYfSRUUKtpRH3nPMLfUxspXjR12z1Yhj4Ix9tQiVMUXJXvgL5+cLloDXaV4FGbWbB/cwqqARfCXJ3V9B76QxJuXdPkL6YKK38DtwfdB6oU1oDDfsm3GN4eChhaYSePyG2VI0lqrFP2iuXgUrsh0AOd6UB0hfbJo2dD+73WQ7un2iCRuu0ic9U2/3FM6D5oAYoXB3wfp9Qd72r1HeMCcdYt9PtgOKnBe7H1EHD7Wl3cpXgOoKWQ2ijqTX0vZs7A93CARIaDS2mD16/EvJWtf2MUU5PxeePUviP7hRXNE0+3gAlmCtAJW+xoi3WoVQWgxJY6YCj+EMrV4AmrIoN6vZcBVpwdCbovYtACWER5IQb74c6cRC4R1PubS0YsH8fE9K/FdT3ehOoCdQG979fAtl+6lvr3wr3y+rYY0DrbHYHNc3OBH1/sfKysgLUid0aNPE6Ae5frIH7FVXQ8Hqnt1l3fyLQ576i8xujhytboFHBDqhBkEQFtNZ+ObjvezaoQHgaKH4PAI1WvhU0WHMjaBBgV1CGOwakvhqkXguydyuoT/Vh0LqZCdAS8DpoHuUwcP/fFgzIbJU/o5PaKmXTkfpKPOlF/J3n9/Jp0BabB0M+9+eqCZCY9XdAYufXgNRiC1W7f8J68ymKj28nzL6eMPtRwnq7vet5cWBRb2Zf+tK17SxoC9LXgU5Jvhjk32KQ5Q8mbLsjQWLx54L2AN4LBhyLg4dSRh0wj9tiD+O04PJRMvxFQic0Jcw+lQjbQ+p9J0GnLKcMreUQCVlLbX6pxTID3W3QdWsXstR7bIF66QToPKUu6NiHCuQzLOPAqIXLQGfdNkFHDE6AzqmfBJ22MQ1rEc+3jbwio/zFq0UTLTrR0Qb1VsL/qwpacjwOamsfAaNLaCvmU8b2BdUg6ZRi2X8QrOW99H/IflGCpxbALnPYT20V2RuH4eeLHgIyT7I9Un8Gw/Z6f7/MiyPjFmwHqkl2gdH2d/w6aAHYSpA0cAPUR+rAhqeGWFAVE4Kx1j2WG2y4y2t/MyasQ0arL/279tfW+amts82/MIvRNIgJxgh+iIbETo5HToKaastgdMLqJ8joo/x3RSihx35UIbVbZJS+/dCHKEnoR6mxM2U8jy1ei5WAsa9YjMJVzoD5w73jatDez1MgsfIWaA/oNkTsDKilvsrAkw27LZo6kWFC1itktPpqpzd83xclcZ5o1K6stpg4yH3AGPTxzXTdaZteKZ0N/sQKvGJF5OAj7i+ug9mPE2bfOxwsHXd1np6nfdmkXrUUdBNX7Ip/nUH/WvBmUBPvXaCVni8AqV8EWSvC4d8BmT8K1CR7Cuj4hzHQysczQeYXQt95HV2W6Ad48TEgZ48HHVe+Aswe9V6QfhLyQWhb12HAvS23a40BLUL9K7nKGWQyLfLtt733qoPOVZmG/lmbdtk0mGkrfGH2gx+Blhq/BpTBumB2yaGgjHQ5KIHfB6T+CZQRfgBSzwHLa47jOO3enqX9JcX+TZC9CxO23f5gdu/HgdroK8HsAdeC2b5LwOyBe0M+Wm/3aZC/CWW4YslyZNS+GvFRjicFYcul+Iua6q82MoqEEeeDjHVBsTGi83rTFJj9MWH2py6Y/aEL6qwnlGHqoLX+k5Dt3Xg4aA36LGgNeRe0Fn0WdLbl58Fs+xnQATozoEOCu6DzZ6ZAgwPTkA9d3qEONnwVGWD1FOgPnwapk729DPovbMkg/aiY66bIKM2puR7+VZtNG6gqSZhNJdY5SlZ/E1SjPBbUlHosSE2X1BYowV4CUg8GbZ7x3yD1dJB6BqyztzmD98Znje3lhKX6c3I93NlidY0Y+P9rvcCqey1AfwAAAABJRU5ErkJggg==;" parent="1" vertex="1">
                    <mxGeometry x="780.3" y="210" width="72.14" height="60" as="geometry"/>
                </mxCell>
                <mxCell id="49" value="" style="rounded=1;whiteSpace=wrap;html=1;opacity=70;" vertex="1" parent="1">
                    <mxGeometry x="202.44" y="325" width="180" height="355" as="geometry"/>
                </mxCell>
                <mxCell id="20" style="edgeStyle=orthogonalEdgeStyle;html=1;entryX=0.5;entryY=0;entryDx=0;entryDy=0;entryPerimeter=0;strokeWidth=5;endArrow=none;endFill=0;startArrow=none;startFill=0;elbow=vertical;jumpSize=8;targetPerimeterSpacing=0;curved=1;exitX=0.5;exitY=1;exitDx=0;exitDy=0;" parent="1" source="10" edge="1">
                    <mxGeometry relative="1" as="geometry">
                        <mxPoint x="549.2299999999999" y="720" as="targetPoint"/>
                    </mxGeometry>
                </mxCell>
                <mxCell id="37" style="edgeStyle=orthogonalEdgeStyle;curved=1;jumpSize=8;html=1;entryX=0;entryY=0.5;entryDx=0;entryDy=0;strokeWidth=5;fontSize=22;startArrow=none;startFill=0;endArrow=none;endFill=0;targetPerimeterSpacing=0;elbow=vertical;strokeColor=#FF8000;shadow=0;" parent="1" source="10" target="2" edge="1">
                    <mxGeometry relative="1" as="geometry"/>
                </mxCell>
                <mxCell id="10" value="" style="image;html=1;image=img/lib/clip_art/computers/Server_Rack_128x128.png" parent="1" vertex="1">
                    <mxGeometry x="252.44" y="330" width="80" height="80" as="geometry"/>
                </mxCell>
                <mxCell id="53" value="" style="rounded=1;whiteSpace=wrap;html=1;opacity=70;" vertex="1" parent="1">
                    <mxGeometry x="726.37" y="325" width="180" height="355" as="geometry"/>
                </mxCell>
                <mxCell id="22" style="edgeStyle=orthogonalEdgeStyle;html=1;entryX=0.5;entryY=0;entryDx=0;entryDy=0;entryPerimeter=0;strokeWidth=5;endArrow=none;endFill=0;startArrow=none;startFill=0;elbow=vertical;jumpSize=8;targetPerimeterSpacing=0;curved=1;exitX=0.5;exitY=1;exitDx=0;exitDy=0;" parent="1" source="11" edge="1">
                    <mxGeometry relative="1" as="geometry">
                        <mxPoint x="549.2299999999999" y="720" as="targetPoint"/>
                    </mxGeometry>
                </mxCell>
                <mxCell id="41" style="edgeStyle=orthogonalEdgeStyle;curved=1;jumpSize=8;html=1;entryX=1;entryY=0.5;entryDx=0;entryDy=0;strokeWidth=5;fontSize=22;startArrow=none;startFill=0;endArrow=none;endFill=0;targetPerimeterSpacing=0;elbow=vertical;strokeColor=#FF8000;shadow=0;" parent="1" source="11" target="2" edge="1">
                    <mxGeometry relative="1" as="geometry"/>
                </mxCell>
                <mxCell id="11" value="" style="image;html=1;image=img/lib/clip_art/computers/Server_Rack_128x128.png" parent="1" vertex="1">
                    <mxGeometry x="776.3699999999999" y="330" width="80" height="80" as="geometry"/>
                </mxCell>
                <mxCell id="50" value="" style="rounded=1;whiteSpace=wrap;html=1;opacity=70;" vertex="1" parent="1">
                    <mxGeometry x="459.44" y="325" width="180" height="355" as="geometry"/>
                </mxCell>
                <mxCell id="21" style="edgeStyle=orthogonalEdgeStyle;html=1;strokeWidth=5;endArrow=none;endFill=0;entryX=0.5;entryY=0;entryDx=0;entryDy=0;entryPerimeter=0;startArrow=none;startFill=0;elbow=vertical;jumpSize=8;targetPerimeterSpacing=0;curved=1;" parent="1" source="12" edge="1">
                    <mxGeometry relative="1" as="geometry">
                        <mxPoint x="549.2299999999999" y="720" as="targetPoint"/>
                    </mxGeometry>
                </mxCell>
                <mxCell id="40" style="edgeStyle=orthogonalEdgeStyle;curved=1;jumpSize=8;html=1;entryX=0.816;entryY=1.031;entryDx=0;entryDy=0;entryPerimeter=0;strokeWidth=5;fontSize=22;startArrow=none;startFill=0;endArrow=none;endFill=0;targetPerimeterSpacing=0;elbow=vertical;strokeColor=#FF8000;shadow=0;" parent="1" source="12" target="2" edge="1">
                    <mxGeometry relative="1" as="geometry">
                        <Array as="points">
                            <mxPoint x="612.41" y="370"/>
                        </Array>
                    </mxGeometry>
                </mxCell>
                <mxCell id="12" value="" style="image;html=1;image=img/lib/clip_art/computers/Server_Rack_128x128.png" parent="1" vertex="1">
                    <mxGeometry x="509.43999999999994" y="330" width="80" height="80" as="geometry"/>
                </mxCell>
                <mxCell id="30" value="" style="rounded=1;whiteSpace=wrap;html=1;fillStyle=auto;strokeColor=default;fontSize=22;fillColor=#F3E6FA;gradientColor=none;opacity=70;" parent="1" vertex="1">
                    <mxGeometry x="160" y="420" width="780" height="100" as="geometry"/>
                </mxCell>
                <mxCell id="25" value="" style="shape=cylinder3;whiteSpace=wrap;html=1;boundedLbl=1;backgroundOutline=1;size=15;strokeColor=#666666;fontSize=22;fillColor=#f5f5f5;rotation=90;fillStyle=auto;fontColor=#333333;gradientColor=default;gradientDirection=east;opacity=70;strokeWidth=2;perimeterSpacing=0;shadow=1;" parent="1" vertex="1">
                    <mxGeometry x="539.41" y="170" width="25.94" height="638.88" as="geometry"/>
                </mxCell>
                <mxCell id="33" value="" style="rounded=1;whiteSpace=wrap;html=1;fillStyle=auto;strokeColor=#6c8ebf;fontSize=22;fillColor=#dae8fc;opacity=70;" parent="1" vertex="1">
                    <mxGeometry x="160" y="559.44" width="780" height="100" as="geometry"/>
                </mxCell>
                <mxCell id="32" value="&lt;b&gt;&lt;font style=&quot;font-size: 22px;&quot;&gt;Tailscale S2S VPN&lt;/font&gt;&lt;/b&gt;" style="text;html=1;align=center;verticalAlign=middle;resizable=0;points=[];autosize=1;strokeColor=none;fillColor=#f6e9f0;" parent="1" vertex="1">
                    <mxGeometry x="711.37" y="430" width="210" height="40" as="geometry"/>
                </mxCell>
                <mxCell id="34" value="" style="shape=cylinder3;whiteSpace=wrap;html=1;boundedLbl=1;backgroundOutline=1;size=15;strokeColor=#666666;fontSize=22;fillColor=#4D4D4D;rotation=90;fillStyle=auto;fontColor=#333333;gradientColor=#3333FF;gradientDirection=east;opacity=70;strokeWidth=3;perimeterSpacing=0;shadow=1;" parent="1" vertex="1">
                    <mxGeometry x="536.26" y="310" width="25.94" height="638.88" as="geometry"/>
                </mxCell>
                <mxCell id="35" value="&lt;b&gt;&lt;font style=&quot;font-size: 22px;&quot;&gt;OpenvSwitch VXLAN&lt;/font&gt;&lt;/b&gt;" style="text;html=1;align=center;verticalAlign=middle;resizable=0;points=[];autosize=1;strokeColor=none;fillColor=#e5ecf4;opacity=70;" parent="1" vertex="1">
                    <mxGeometry x="690" y="570" width="240" height="40" as="geometry"/>
                </mxCell>
                <mxCell id="24" value="&lt;b&gt;&lt;font style=&quot;font-size: 22px;&quot;&gt;Proxmox VE Cluster&lt;/font&gt;&lt;/b&gt;" style="text;html=1;align=center;verticalAlign=middle;resizable=0;points=[];autosize=1;strokeColor=none;fillColor=default;opacity=60;" parent="1" vertex="1">
                    <mxGeometry x="299.40999999999997" y="280" width="240" height="40" as="geometry"/>
                </mxCell>
                <mxCell id="2" value="" style="image;html=1;image=img/lib/clip_art/networking/Cloud_128x128.png" parent="1" vertex="1">
                    <mxGeometry x="457.38" y="40" width="190" height="120" as="geometry"/>
                </mxCell>
                <mxCell id="42" value="&lt;b&gt;&lt;font style=&quot;font-size: 22px;&quot;&gt;Kubernetes Cluster&lt;/font&gt;&lt;/b&gt;" style="text;html=1;align=center;verticalAlign=middle;resizable=0;points=[];autosize=1;strokeColor=none;fillColor=none;opacity=60;" parent="1" vertex="1">
                    <mxGeometry x="585.3" y="740" width="230" height="40" as="geometry"/>
                </mxCell>
                <mxCell id="44" value="" style="shape=flexArrow;endArrow=classic;html=1;shadow=0;sketch=0;strokeColor=#FF8000;strokeWidth=5;fontSize=22;targetPerimeterSpacing=0;curved=1;elbow=vertical;jumpSize=8;" parent="1" edge="1">
                    <mxGeometry width="50" height="50" relative="1" as="geometry">
                        <mxPoint x="760" y="160" as="sourcePoint"/>
                        <mxPoint x="711.37" y="160" as="targetPoint"/>
                    </mxGeometry>
                </mxCell>
                <mxCell id="45" value="&lt;b&gt;Cloudflare Tunnel&lt;/b&gt;" style="text;html=1;align=center;verticalAlign=middle;resizable=0;points=[];autosize=1;strokeColor=none;fillColor=none;fontSize=22;shadow=1;fillStyle=auto;strokeWidth=3;opacity=70;" parent="1" vertex="1">
                    <mxGeometry x="750" y="140" width="210" height="40" as="geometry"/>
                </mxCell>
                <mxCell id="46" value="&lt;font style=&quot;font-size: 21px;&quot;&gt;桐山宅&lt;/font&gt;" style="text;html=1;strokeColor=none;fillColor=none;align=center;verticalAlign=middle;whiteSpace=wrap;rounded=0;shadow=1;fillStyle=auto;strokeWidth=3;fontSize=22;opacity=70;" parent="1" vertex="1">
                    <mxGeometry x="310" y="380" width="80" height="30" as="geometry"/>
                </mxCell>
                <mxCell id="47" value="&lt;font style=&quot;font-size: 21px;&quot;&gt;村井宅&lt;/font&gt;" style="text;html=1;strokeColor=none;fillColor=none;align=center;verticalAlign=middle;whiteSpace=wrap;rounded=0;shadow=1;fillStyle=auto;strokeWidth=3;fontSize=22;opacity=70;" parent="1" vertex="1">
                    <mxGeometry x="567.38" y="380" width="80" height="30" as="geometry"/>
                </mxCell>
                <mxCell id="48" value="&lt;font style=&quot;font-size: 21px;&quot;&gt;李宅&lt;/font&gt;" style="text;html=1;strokeColor=none;fillColor=none;align=center;verticalAlign=middle;whiteSpace=wrap;rounded=0;shadow=1;fillStyle=auto;strokeWidth=3;fontSize=22;opacity=70;" parent="1" vertex="1">
                    <mxGeometry x="825" y="380" width="80" height="30" as="geometry"/>
                </mxCell>
            </root>
        </mxGraphModel>
    </diagram>
</mxfile>